<?xml version="1.0" encoding="utf-8"?>
<!-- Generator: Adobe Illustrator 19.0.0, SVG Export Plug-In . SVG Version: 6.00 Build 0)  -->
<svg version="1.1" id="图层_1" xmlns="http://www.w3.org/2000/svg" xmlns:xlink="http://www.w3.org/1999/xlink" x="0px" y="0px"
	 viewBox="0 0 440 350" style="enable-background:new 0 0 440 350;" xml:space="preserve">
<style type="text/css">
	.st0{fill:#E60012;}
	.st1{opacity:0.5;}
	.st2{fill:#FFFFFF;}
	.st3{font-family:'MicrosoftYaHei';}
	.st4{font-size:7.5657px;}
	.st5{fill:none;stroke:#595757;stroke-width:0.5;stroke-miterlimit:10;}
</style>
<circle class="st0" cx="159.3" cy="101.5" r="1"/>
<circle class="st0" cx="231.1" cy="167.2" r="1"/>
<circle class="st0" cx="177.9" cy="198.5" r="1"/>
<circle class="st0" cx="141.2" cy="238.9" r="1"/>
<circle class="st0" cx="140.9" cy="289.4" r="1"/>
<circle class="st0" cx="139.2" cy="313" r="1"/>
<circle class="st0" cx="191.2" cy="256.2" r="1"/>
<circle class="st0" cx="239.1" cy="225.6" r="1"/>
<circle class="st0" cx="292.1" cy="158.8" r="1"/>
<circle class="st0" cx="347.6" cy="139.9" r="1"/>
<circle class="st0" cx="279.9" cy="92" r="1"/>
<path class="st1" d="M236.8,182.4h-18.4c-0.6,0-1-0.5-1-1V172c0-0.6,0.4-1,1-1h18.4c0.6,0,1,0.4,1,1v9.4
	C237.8,182,237.3,182.4,236.8,182.4z"/>
<path class="st1" d="M205.1,199.5h-18.4c-0.5,0-1-0.4-1-1v-9.4c0-0.6,0.5-1,1-1h18.4c0.5,0,1,0.4,1,1v9.4
	C206.1,199.1,205.6,199.5,205.1,199.5z"/>
<path class="st1" d="M301.3,173.9h-18.4c-0.5,0-1-0.4-1-1v-9.4c0-0.5,0.5-1,1-1h18.4c0.6,0,1,0.5,1,1v9.4
	C302.3,173.5,301.8,173.9,301.3,173.9z"/>
<path class="st1" d="M289.1,88.8h-18.4c-0.5,0-1-0.4-1-1v-9.4c0-0.6,0.5-1,1-1h18.4c0.5,0,1,0.4,1,1v9.4
	C290.1,88.3,289.7,88.8,289.1,88.8z"/>
<path class="st1" d="M172.6,203.2h-18.4c-0.5,0-1-0.4-1-1v-9.4c0-0.6,0.5-1,1-1h18.4c0.5,0,1,0.4,1,1v9.4
	C173.6,202.8,173.1,203.2,172.6,203.2z"/>
<path class="st1" d="M200.4,271.5H182c-0.6,0-1-0.5-1-1V261c0-0.5,0.4-1,1-1h18.4c0.6,0,1,0.5,1,1v9.4
	C201.4,271,201,271.5,200.4,271.5z"/>
<path class="st1" d="M248,241.1h-18.4c-0.6,0-1-0.5-1-1v-9.4c0-0.6,0.4-1,1-1H248c0.5,0,1,0.4,1,1v9.4
	C249,240.7,248.6,241.1,248,241.1z"/>
<path class="st1" d="M150.4,285.9h-18.4c-0.6,0-1-0.5-1-1v-9.4c0-0.5,0.4-1,1-1h18.4c0.5,0,1,0.5,1,1v9.4
	C151.4,285.4,150.9,285.9,150.4,285.9z"/>
<path class="st1" d="M148.4,328.3h-18.4c-0.6,0-1-0.5-1-1v-9.4c0-0.5,0.4-1,1-1h18.4c0.5,0,1,0.5,1,1v9.4
	C149.4,327.8,148.9,328.3,148.4,328.3z"/>
<rect x="128.7" y="242.4" class="st1" width="27.5" height="11.4"/>
<rect x="145.6" y="87.3" class="st1" width="27.5" height="11.4"/>
<rect x="332.1" y="125.7" class="st1" width="27.5" height="11.4"/>
<text transform="matrix(1 0 0 1 271.964 85.6924)" class="st2 st3 st4">承德</text>
<text transform="matrix(1 0 0 1 147.9663 95.6603)" class="st2 st3 st4">张家口</text>
<text transform="matrix(1 0 0 1 333.8626 133.6553)" class="st2 st3 st4">秦皇岛</text>
<text transform="matrix(1 0 0 1 284.4895 170.7184)" class="st2 st3 st4">唐山</text>
<text transform="matrix(1 0 0 1 219.7588 179.3301)" class="st2 st3 st4">廊坊</text>
<text transform="matrix(1 0 0 1 155.2695 200.2792)" class="st2 st3 st4">保定</text>
<text transform="matrix(1 0 0 1 188.472 196.5155)" class="st2 st3 st4">雄安</text>
<text transform="matrix(1 0 0 1 131.3473 250.9889)" class="st2 st3 st4">石家庄</text>
<text transform="matrix(1 0 0 1 134.0538 282.1971)" class="st2 st3 st4">邢台</text>
<text transform="matrix(1 0 0 1 132.0407 325.5677)" class="st2 st3 st4">邯郸</text>
<text transform="matrix(1 0 0 1 184.0298 268.7552)" class="st2 st3 st4">衡水</text>
<text transform="matrix(1 0 0 1 232.0959 238.4215)" class="st2 st3 st4">沧州 </text>
<path class="st5" d="M219.8,101.1l-0.6,0.4c0,0-0.6,0.4-0.8,0.4c-0.1,0-1.1-0.2-1.1-0.2s-0.9,0.2-1.2,0.1c-0.3,0-1.3,0.1-1.3,0.1
	l-1.8-0.7l-1.1-0.3l-0.7,1.4l-1,0.6l-0.2,0.8l-0.8,0.7l-1.2,1.6l-0.8,0.8l-1.4,1.1l-1.3,1.2l-1,0.8l-1.1,0.8c0,0-1.9-0.3-2-0.3
	c-0.1,0-0.7-0.3-0.7-0.3l-1.6-0.5l-1.3-0.1l-2.3,1.2c0,0-0.9,0.6-1,0.6c-0.1,0.1-1,0.9-1.1,1.1c-0.1,0.2-0.3,1.3-0.3,1.4
	c0,0.1,0,1.3,0,1.3l0.4,1v1.8l0.8,0.9l1.2,1.5l0.9,0.8l0.9,0.6l1.3,0.7l1.1,0.7c0,0,1,0.7,1.2,0.9c0.2,0.2,0.4,1.1,0.4,1.1l-0.4,1.1
	l-0.9,0.8l-1,0.7l-0.8,0.8l-0.7,1.2l-0.1,1.3l-0.3,1.5c0,0-0.2,0.7-0.3,0.9c-0.1,0.2-0.6,0.8-0.6,0.8s-0.9,0-0.7-0.1
	c0.1-0.1-1-0.5-1.1-0.5c-0.1-0.1-1-0.7-1.1-0.7c-0.1,0-0.8,0.3-0.8,0.4c-0.1,0.1-0.9,1-1.1,1.1c-0.2,0.1-1,0.2-1,0.2l-1.4-0.2
	l-1.4,0.5l-2,0.8l-0.7,1l-1,1.2l-1,1l-1.6,0.8l-1.8,1.6c0,0-0.4,1-0.4,1.1c0,0.1,0,0.3,0.1,0.6l-0.1,0l-0.2,0.3l-0.4,0.6l-0.6,1.3
	v1.1l-0.3,0.6l-1,0.5l-0.5,0.9l-0.5,1.7l-1.1,1.3l-0.4,1.5l-0.9,0.7l-1.3,1.3l-1.2,0.9l-1.5,0.2l-1.3,0.5l-0.8,0.7l-0.7,0.7l-1-0.1
	c0,0-0.7-0.6-1.3-0.8c-0.6-0.1-1.6-0.3-1.6-0.3l-0.8,1.1l-0.7,1.4l-1.4,0.7h-1.2l-1.2,0.2l-0.8,0.7l-1.1,1.6l-0.3,0.6l-0.8,0.2
	l-0.7-0.5c0,0-0.7-0.2-0.9-0.2s-2-0.1-2-0.1l-1.7-0.3l-0.6,1.2l-0.7,0.4l-1-0.4l-0.6,0.2v1.7l-0.9,0.1l-0.6-0.7l-0.4,0.3L143,164
	l-1.2,0.2l-0.2,0.4h-0.8l0-0.9l-0.5-1.2l-0.7-0.7l-1.4-1l-1.3-1l-0.5-1.9l-0.1-1.9l-0.1-1.8l0-2.1l-0.3-1.9l0-0.8l-0.8-0.5l-0.8-0.3
	l-1.3-0.3l-1.2-0.3c0,0-1.4,0.1-1.5,0.1c-0.2,0-0.6,0.6-0.8,0.7c-0.2,0.1-0.6,0.7-0.6,0.7l-0.3,0.1l-0.3-0.3l-0.3-1.1l-0.5-0.9
	l-1.5-0.9l-1.6-1l-1.5-0.2l-0.8,0l-0.7,0.2l-0.8-0.2l-0.3-1.4l-0.4-1.5l-1.1-0.8l-1.2-0.4l-1.1-0.6l-0.1-1.2l0.5-0.9l0.8-0.9l0.6-1
	c0,0,1-0.6,1.1-0.7c0.1,0,0.5,0.4,0.5,0.5c0.1,0.1,0.7,0.2,0.7,0.2l1-0.8l0.8-0.9l0-0.9l-0.3-1.2v-0.8l0.6-0.3l2-0.1l1.2-0.3
	l0.8,0.6h1.3l0.6-0.6l0.5-1.2l0.9-0.7l1.5-0.4l1.8-0.4l1.9-0.1l1.9-0.1l1.1-0.4l0.5-0.7l0.7-0.7l0.8-0.8l0.3-1.6l-0.4-1.1l-0.8-0.5
	l-0.9-0.2l-1.1-0.2l-0.7-0.6l-0.8-0.6l-1.1,0.2l-0.7,0.2l-0.7,0.7l-0.4,0.1l-0.5-0.3l-0.5-1.5l-0.4-1.3l-0.3-1.8l0.1-1.2l0.2-1.5
	l-0.4-2l0.1-0.9l0.2-1.1l-0.1-0.6l-0.4-0.5l-1.2-0.1l-0.8-0.5l-0.5-1l-0.3-1.2l-0.8-0.8l-1.4-1.6l-1.3-2l-1.3-1.5l-0.8-2.5l-0.7-2
	l-0.6-2.2l-0.4-2L121,92l-1-0.5l-0.8-0.9l-0.8-1.5l-0.6-1.1l-0.8-1l-1-1l-1-0.9l-0.6-0.6v-0.7l0.2-0.6l1-0.6l0.7-0.5l0.3-0.7
	l-0.4-0.7l0.3-0.9l1.2-0.2h1.2l0.2-0.7l0.6-0.8c0,0,0.9-0.2,1-0.2c0.1,0,0.7-0.4,0.7-0.4l0.1-0.6h-0.5l-0.5-0.8l-1-0.5l-1.1-1.2
	l-0.5-1l-0.2-1.5l0-1.9l-0.2-1.1l-1.4-0.7l-0.5-0.6l-0.2-1.2l0.3-0.8l1.1-0.8l1.4-1.1l1.5-0.8l1.6-0.8l1.8-0.1l1.3,0l1.1-0.1
	l1.5,0.1c0,0,0.8,0.3,1,0.4c0.2,0.1,0.9,0.5,0.9,0.5l0.8,0.3l0.9-0.3l0.1-0.6l0-1.1l0.1-1.2l0.3-1.2l0.5-1.2l0.2-1.5l-0.2-0.9
	l-0.5-1.6V52l0-1.4l-0.1-1.4l-0.5-1.1l-0.2-1.2l0.8-0.4l0.8-0.8l0.2-1l0.4-1.1l1-1.3l0.9-0.9l0.6-0.7l0.5-0.9l0.6-1.1l0.6-0.5
	c0,0,0.7,0.1,0.7,0.2c0,0.2,0.6,0.4,0.7,0.5c0.1,0.1,0.7,0.5,0.7,0.5l0.7,0.2l1,0l0.5-0.6l0.7-1l0.8-0.6l0.1-0.9l-0.5-1.3l-0.9-1.1
	v-1.2l0.3-1.2l1.2-0.7l1.2-0.4l0.7-0.5l0.9-0.8c0,0,1-0.2,1.2-0.2c0.2,0,0.9,0.1,0.9,0.1s1,0.3,1.1,0.4c0.2,0.1,1.2,0.7,1.2,0.7
	l1.5,0.6l0.9-0.3l0.5-0.4l0.9-0.6l0.9-1l0.6-0.7l0.5-0.3l0.5,0.1l0.4,1l0.3,0.8l0.2,1.3l0,1.1l0,1.3l0,1.8l0.3,1l0.4,0.6l0.4,1.1
	l0.6,1.2l0.3,1.1l0.1,0.9l0.1,1.5l0.1,1.7l0.1,1.1l0,1.4l-0.4,1.1l-0.4-0.1l-0.9-0.1c0,0-0.2,0.1-0.3,0.3c-0.1,0.3-0.1,1.1-0.1,1.1
	l0.3,1l0.5,0.8l0.2,0.9l0,0.8l-0.2,1.1l-0.2,1.2l-0.5,0.9l-0.2,1.2l0.3,0.9l0.5,0.7h1l1.5,0l1.1-0.3l0.9-0.4l1.8-0.2l1,0l1.9,0.1
	l1,0.3l1.1,0.8l0.3,0.7l0.1,1.2c0,0,0.2,0.6,0.3,0.7c0.1,0.1,0.6,0,0.6,0l0.5-0.5l0.4-0.8l0.5-0.9l0.5-0.4l0.4-0.2l0.7,0.8l0.8,0.8
	l0.8,0.2l1.1-0.3l0.1-0.6l-0.2-0.7l0.2-0.6l0.2-0.7l-0.4-0.4l-0.7-0.4l-0.5-0.5l-0.4-0.5v-1.2l0-0.6l1.1-0.1l1.5-0.4l0.8-0.6l0.8-1
	l0.7-0.7h1.8l1.3-0.3l0.7-0.2l1.2-0.7l1.6-0.5l0.5-0.8l1-1.1l1-0.3l1.6-0.8l0.8-0.6l0.4-1l0.4-0.5l1.4-0.9l1.2-0.9l1.2-0.9l0.5-0.6
	l0.6-0.2l1.5,0.7L199,42l0.4,1.2l0.3,1.1l0.3,0.8l0.8,0.6l0.9,0.5l0.2,1.2l0.2,0.9l0.3,0.8l0.9,0.6l1.5,0.1l-0.8,1.8l-2.3,2.3
	l-2.2,1.4l-1.4,1.1l-0.2,1l0.4,0.6l0.3,1.2l0.4,1.2l0.6,0.5l0.9,1.6l0.7,1.9l0.2,1.9l1,1.6l1.1,1.2l1.5,0.5l1.6,0.8l2,1.1l1,1.3v1.8
	c0,0,0,1.1,0.3,1.6c0.3,0.5,1.1,1.7,1.1,1.7v2.9l0.6,1.4l0.1,1.5l1.2,1.8l-0.1,1.8l0.1,1.6l0.7,1.4l2.2,1.2l0.3,1.3l0.2,0.6
	c-0.3,0.2-0.5,0.4-0.5,0.5c0,0.2-0.6,0.8-0.6,0.8l0.3,0.8l0.4,0.6l1.1,0.8l0.9,0.7l1,1.1l0.7,1.3L219.8,101.1z"/>
<path class="st5" d="M275.3,230.2c-0.1,0-0.8,0.2-0.8,0.2s0,0.4,0.2,0.4c0.2,0,0,0.5,0,0.7c0,0.2-0.1,0.7-0.1,0.7l0.3,0.9l-0.9,1
	l-0.7,0.9l0,0.7l0.7,0l1.1-0.6l0.5,0.1l0,0.5l-0.2,0.4l-0.4,0.6l-0.1,0.8l-0.6,0.6l-0.8,0.3l-2.1,0.2l-1.8,0.2l-1.9,0.4l-0.7,0.8
	l-0.7,1.6l-0.8,1.5l-0.4,1.2l-0.9,1.5l-0.7,1.9l-0.7,1l-0.6,0.7l-0.8,0.9l-0.5,0.5c0,0-1.4-0.1-1.6-0.1c-0.1,0-1.5-0.5-1.5-0.5
	s-1.3,0.1-1.5,0.1c-0.2,0.1-0.5,0.3-0.5,0.3l-1,0.4l-1.4,0.2l-1.8,0l-2,0.3c0,0-0.9,0.1-1.1,0.1c-0.2,0-1.2-0.2-1.2-0.2s-1,0-1.2,0
	c-0.2,0-1,0.3-1.1,0.4c-0.2,0.1-1,0.4-1,0.4l-1.6,0l-1.6-0.1l-1.1-0.5l-1,0l-1.3,0.4l-2.2,0.2l-1.1,0.3l-1,0.9l-0.5,0.9l-0.9,1.1
	l-0.9,1.8l-1.3,0.7c0,0-0.3,0.5-0.4,0.6c-0.1,0.2-0.6,0.9-0.6,0.9l-0.3,1.7l-0.8,0.6l-1.5,1.3l-0.7,0.8l-0.4,1.8l-0.7,1.2l-1,1.2
	l-1.4,1.3l-1.2,0.9l-0.4,0.4l-0.2,0.8l-0.6,0l-1.1-0.5l-0.5-0.2l-0.3-1l0-0.8c0,0-0.4-0.5-0.6-0.7c-0.2-0.1-0.4-0.7-0.4-0.7
	l-0.4-0.6l-0.5-0.6l-0.2,0.3l0-0.3l0.2-0.7l0.8-0.9l0.4-1.6l0.8-1.7l0.3-1.2l1.2-1.5l1.2-2.2l0.5-1c0,0,0.2-1.3,0.2-1.4
	c0-0.1,0-1.7,0-1.7l0.8-2l0.6-1.1l1.2-1.1l0.2-0.8l0.2-1.2v-1.6l-0.3-0.7l-0.5-0.7c0,0-1.1,0-1.3,0c-0.2,0-1.4,0-1.4,0s-2,0-2.2,0
	s-1.3,0.3-1.3,0.3l-2,0.6l-0.9,0.6l-0.7,0.8l-0.8,0.1c0,0-1.1,0.1-1.4,0.2c-0.3,0.1-0.5,0.1-0.9,0.2c-0.4,0.1-1.7,0.3-1.7,0.3
	l-0.6,0.8l-0.6,0.9l-0.6,0.9l-0.4,0.5l-0.8-0.4c0,0-0.2-1.1-0.2-1.5c-0.1-0.3-0.5-1.4-0.5-1.4l-0.3-1.5l-0.3-1.1l-0.6-1.7l-0.8-1.4
	l0.1-1.1v-0.9l-0.5-0.4v-0.6l-0.6-0.5c0,0-1.3-0.1-1.5,0c-0.2,0.1-1.2,0-1.2,0h-1l-0.8-0.9l-0.9-1.4l-0.5-1.2l-1-2.3l-0.5-1.2
	l-0.3-1.1v-1.3l-0.7-0.4l-0.8-0.5l-1.8-0.3l-1.2-0.3l0.1,0v-3l0.7-2.9l1.9-1.4l1.8-0.5l1.5-0.7l2.3-1.2l0.6-1.5c0,0,0.6-1.6,0.7-1.8
	c0.1-0.2,0-2,0-2l0.4-1.3l-0.3-2v-0.8l0.1-0.4l0.1-0.4l0.1-0.4l0.5-0.5l0,0l0.8-0.9l0.8-0.8l0.2-0.7l0.3-0.6l0.5-1.9l0.2-0.6
	c0,0,0.3-0.7,0.4-0.8c0-0.1,0.6-0.8,0.6-0.8s1-0.9,1.1-1c0,0,0.8-0.5,0.8-0.5l1.7-0.1l1.1,0l0.1,0.1l0.7,1.4l0.8,1.9l1.2,1.2
	l1.6,0.6l1.7,0.9l1.2,0.4l1.5,0.7l0.6,0.5l0.6,1.3l-0.5,1.6l-0.7,1.1l-0.9,1.3l-0.2,1.4l0.5,1.5l1.2,1.2l0.7,1.5v1.5l0.6,1.3l0.8,1
	l2,0.2c0,0,0.9-0.4,1.7-0.1c0.7,0.2,2.1,1.1,2.1,1.1s0.1,0.5,0.9,0.4s1.3-0.4,1.3-0.4v-0.8L228,218c0,0,0.1-0.4,0.5-1
	c0.3-0.6,0.3-0.9,0.3-1.2c0-0.3-0.1-1.2-0.1-1.2s-0.5-1,0.1-1.3s0.6-0.4,0.8-0.5c0.2-0.2,1.7-1.1,1.7-1.1s1.4-0.6,1.6-0.7
	c0.2-0.2,0.4-0.5,0.5-0.9c0.1-0.4-0.3-1.7-0.3-1.7s-0.3-0.4-0.3-1c0-0.6,0-1.7,0-1.7l0-0.5l0.2-0.4l0.6,0l1.5,0l1,0.4l0.5,0.3
	l0.4,0.9l0.6,2.3l0.6,0.8l0.8,0.2l1.3-1l0.6-0.5l0.6,0.4l0.4-0.4l1.1-1.1c0,0,0.7,0,0.9-0.1c0.2-0.1,0.4,1,0.4,1c0,0.1,0.8,1,0.8,1
	l0.2,1l0.6,1.3l1,1l1.4,0.5c0,0,0.9-0.2,1-0.3c0.1-0.1,0.5-0.5,0.5-0.5l0.9-0.8l1.2-0.4l1-0.2c0,0,0.8,0.4,0.7,0.6
	c-0.1,0.2-0.1,0.4-0.1,0.5c0,0.1-0.6,0.6-0.6,0.8c0,0.2,0.2,0.7,0.1,0.9c-0.1,0.2,1.4,0,1.4,0l1.6,0l1.9-0.6l1.7-0.4l1.5-0.7
	l1.1-0.5l1.5-0.3l1.9-0.1l1.1,0.2l0.5,0.8l0.7,0.7l0.7,1.4l0.7,1.3l1,1.4l0.2,0.9l0.8,0.8c0,0,0.3,0.8,0.4,1c0.1,0.1,0.5,0.8,0.6,1
	c0.1,0.1,0.9,0.9,0.9,0.9l0.1,0.8l0.5,0.8c0,0-0.2,0.2-0.2,0.6c0,0.3-0.6-0.1-0.6-0.1l-1.1-0.4c0,0-0.3-0.1-0.6,0.1
	c-0.3,0.2-0.8,0.5-0.8,0.5l-0.8,0.4l-0.1,0.6c0,0,0,1.2,0,1.3s0.5,0.5,0.5,0.5s0.8,0.4,1,0.5c0.2,0.1,0.7,0,0.9,0c0.2,0,0.8,0.1,1,0
	c0.2-0.1,1.3,0,1.5,0c0.2,0,1.4,0.6,1.4,0.6s0.4,0.3,0.6,0.4c0.1,0.1-0.3,1.3-0.3,1.3S275.5,230.2,275.3,230.2z"/>
<path class="st5" d="M224.3,244.7v1.6l-0.2,1.2l-0.2,0.8l-1.2,1.1l-0.6,1.1l-0.8,2c0,0,0,1.6,0,1.7c0,0.1-0.2,1.4-0.2,1.4l-0.5,1
	l-1.2,2.2l-1.2,1.5l-0.3,1.2l-0.8,1.7l-0.4,1.6l-0.8,0.9l-0.2,0.7l0,0.3v0l-0.5,0.7l-0.7,0.9l-0.6,1.1l-0.5,1.2l-0.3,0.7l-0.6,1.5
	l0.2,1.4l0.3,1l0.5,1l-0.5,0.8l-0.7,0.5l-1.1,0.4l-1-0.2c0,0-0.7-0.4-0.9-0.5c-0.2-0.1-0.9-0.8-0.9-0.8s-0.6,0.1-1,0.3
	c-0.4,0.2-0.7,0.6-0.8,0.8c-0.1,0.2-1,0.2-1,0.2l-1-0.1l-1.3,0.8l-1.3,0.4l-0.8,1c0,0-0.4,0.7-0.3,0.9c0.1,0.3-0.7,1-0.6,1.3
	c0.1,0.3-0.2,1.1-0.2,1.1l-0.3,1.2l-0.5,0.9l-0.7,0.2c0,0-0.8,0.3-1,0.4c-0.2,0.2-0.1,0.7-0.1,0.7s-0.1,0.9-0.1,1.1
	c0,0.2-0.3,0.6-0.5,0.8c-0.2,0.2-0.5,1-0.5,1v1.4c0,0-0.1,0.6-0.1,0.7c0,0.1-0.4,0.8-0.4,0.8l-0.5,0.9l-0.7-0.6l-0.2-0.3l-0.7-0.4
	l-0.6-1.1l-1-1.1l-0.7-0.6l-0.2-1.1l-0.1-1.5l-0.7-1.4l-1.6-0.9l-1.2-0.4l-1-0.6l-0.1-1l-0.1-0.5c0,0-0.6-0.5-0.7-0.5
	c-0.1,0-0.9,0.7-0.9,0.7h-0.4l-0.5-0.1l0.3-0.9l0.1-0.9l-0.3-0.3c0,0-0.9,0.4-1,0.5c-0.2,0.1-0.3,0.5-0.3,0.5l-0.9-0.1l-0.9-0.8
	l-0.5-1.3l-0.6-0.6l-0.6-0.5l-2.2-0.2l-0.8-0.9l-1-1.1l-0.5-0.1l-1.5-0.5l-0.3-0.4l0.1-0.5l0.4-0.7c0,0,1.3-0.1,1.4-0.1
	c0.1,0,0.9,0.3,1,0.3c0.1,0.1,0.8,0,0.8,0l0.3-0.8l0.5-0.9l-0.4-0.5l-0.9-0.4l-0.5-0.6l-0.3-0.5l-0.7-0.7l-0.4-0.1l-0.6,0.3
	l-0.2,0.5c0,0-0.1,0.6-0.1,0.8c0,0.2-0.4,0.3-0.4,0.3l-0.3-0.4l-0.3-0.7l-0.5-1.3l-0.4-0.6c0,0-1.1-0.4-1.2-0.5c-0.2,0-1.4,0-1.4,0
	l-0.7,0.2c0,0-0.4,0.4-0.6,0.6c-0.2,0.2-0.2,0.6-0.2,0.6l-0.5-0.2l-0.2-0.6l-0.3-1l-0.2-1l0-0.5l0.2-0.9l1-0.6h0.9l1.3-0.2h0.2l1,0
	l1.1-0.5l0.5-1l0.1-0.8l1-0.8h0.9l1-0.5l-1.1-1.2l-0.4-0.6l-0.5-2.8l0-0.9l0.4-1.3l-0.1-1l0.8-1.8l0.1-1l0.8-0.6l0.5-0.5l0.4-0.7
	l0.8,0.7l0.7,0l1-0.7l-0.6-1.1l0-1.9l-0.1-1.4l0.2-1.1l0.6-0.8v-0.8l-0.5-1l-1.2-0.3l-1.2,0.3l-1.3-1l-0.6-1.3l-0.4-1.4l-0.6-2.9
	v-1.4l-0.1-0.4c0.1-0.1,0.7-0.5,0.9-0.7c0.2-0.2,0.9-1.6,0.9-1.6l0.6-0.9l1.8,0.1l0.9,0c0,0,0.6-0.4,0.8-0.6
	c0.2-0.2,1.1-1.1,1.6-0.7c0.6,0.4,0.5,1.1,1.1,1c0.6-0.1,1,0.7,1.9,0.5c0.9-0.2,1.6-0.1,2-0.1c0.4-0.1,1.7,0.3,2-0.3
	c0.3-0.6,0.8-1.2,0.8-1.2l1.5-1.1l1.2,0.3l1.8,0.3l0.8,0.5l0.7,0.4v1.3l0.3,1.1l0.5,1.2l1,2.3l0.5,1.2l0.9,1.4l0.8,0.9h1
	c0,0,1,0.1,1.2,0c0.2-0.1,1.5,0,1.5,0l0.6,0.5v0.6l0.5,0.4v0.9l-0.1,1.1l0.8,1.4l0.6,1.7l0.3,1.1l0.3,1.5c0,0,0.4,1.1,0.5,1.4
	c0.1,0.3,0.2,1.5,0.2,1.5l0.8,0.4l0.4-0.5l0.6-0.9l0.6-0.9l0.6-0.8c0,0,1.2-0.2,1.7-0.3c0.4-0.1,0.6-0.1,0.9-0.2
	c0.3-0.1,1.4-0.2,1.4-0.2l0.8-0.1l0.7-0.8l0.9-0.6l2-0.6c0,0,1-0.3,1.3-0.3s2.2,0,2.2,0s1.2,0,1.4,0c0.2,0,1.3,0,1.3,0l0.5,0.7
	L224.3,244.7z"/>
<path class="st5" d="M178.4,242.3l-0.2,1.1l0.1,1.4l0,1.9l0.6,1.1l-1,0.7l-0.7,0l-0.8-0.7l-0.4,0.7l-0.5,0.5l-0.8,0.6l-0.1,1
	l-0.8,1.8l0.1,1l-0.4,1.3l0,0.9l0.5,2.8l0.4,0.6l1.1,1.2l-1,0.5h-0.9l-1,0.8l-0.1,0.8l-0.5,1l-1.1,0.5l-1,0l-0.2-1.1l-0.4-1.7
	l-0.6-1.2l-1.4-1.2l-1.6-1.4l-0.3-1l-0.8-1.2h-1.1l-0.8,0.8c0,0-0.3,0.9-0.4,1.3c-0.1,0.4-0.2,0.8-0.2,0.8l-0.7,0.2l-0.4,0.6
	l-0.7,0.1c0,0-0.8,0.1-1.2,0.4c-0.4,0.3-1.2,0.8-1.2,0.8l-0.5,0.2c0,0-0.9,0-1.3,0s-0.1-0.5-0.1-0.5h-0.7l-0.7,0.1l-0.8,0.4
	l-0.7,0.8l-1.2,1l-1,1.1l-0.6,0.7l-1.2,0.5l-1.8,0.5l-1.2,1l-0.3,0.4l-1,1.4c0,0-2,0.8-2.3,0.8c-0.2,0-2.4-0.1-2.4-0.1l-1.2-0.2
	c0,0-1.2-0.5-1.4-0.7c-0.3-0.1-0.8-0.4-0.8-0.4l-1.6,0.5l-1.5,1l-2,1.3l-1,0.7l-2.2,0.5h-1.9l-1.2-0.5l-0.9-0.3l-0.6-0.6h-1.2
	l-0.4,0.5l-0.6,1.4l-0.4,0.6l-1.2,0.2l-0.8,0.4l-0.4,0.8l-0.9,0.5l-1.5,0.3l-0.4,0c0-0.1,0.2-1.1,0.2-1.1c0-0.1,0.9-1.7,0.9-1.7
	l1.5-2.1l0.8-1.3l0.9-2l0.9-1.7l0.3-2.2l-0.2-1.1l-0.3-0.8l-1.3-0.5c0,0-0.9-0.3-1.2-0.3c-0.2,0-0.3,0-0.4,0.1
	c-0.1,0.1-0.7,0.6-0.7,0.6h-0.6l-0.7-0.8l0.2-1l0.4-1l0-1.7l-0.8-1.3l-0.7-1l-0.3-1.4l0-1.4l-0.3-1.3l-0.8-0.7l-1-0.8l-0.4-0.8
	l-0.1-1.4l0.1-1.2l-0.7-1.4l-0.5-1.5l-0.8-1.9l-0.5-1.1l0.1-0.8l-0.1-1.4l-0.4-0.5l-0.7-0.4l-1.1,0.4l-1.2-0.6l-1-0.6l-0.7-0.8
	c0,0-1-0.6-1.1-0.6c-0.2-0.1-1-0.3-1-0.3l-1-0.2l-0.9-0.5c0,0-0.6-0.3-0.9-0.4c-0.3-0.1-0.9,0-0.9,0l-0.5-0.9v-1.5l-0.1-1.2
	l-0.4-2.2v-1.6l0.3-1.2l0.6-1.5l0.3-1l-0.3-1.7v-1.9l0.6-1.7l0.7-1.1l0.2-1.2l-0.1-1.7l0.6-0.9l0.7-0.4l1.5,0h0.9l0.9-0.2l0.6-0.9
	l0-1l0.3-0.7l0.6-0.5l1.2-0.2l1.1-0.2l0.5-0.6l0.8-0.9l0-0.1l1,0.7l0.9,0.8l1.2,1.2l0.8,0.7l1.7,0.8l2,0.7h2.4l1.3,0.5l2.5-0.6
	l1.8-0.5l2.8-0.6l1.4,0.3l1.8,0.5l1.5-0.3l1.3-0.2l1.9,0.4l1.9,1.6l1.8,1l0.4,1.8l0.9,1.6l1,1.8l1,1.2l1,1l2.4,0.5
	c0,0,1.9-0.4,2-0.4c0.1,0,1.7-0.2,1.7-0.2l0.9,0.7l0.4,1.1l1.3,1.3l1.8,1.6l0.8,2l0,2.2l-0.4,1l-1.1,1l0.1,0.9l1-0.3
	c0,0,0.2-0.2,0.6-0.2c0.4,0,1.2,0.1,1.6,0.2c0.5,0.1,0.5,0.2,0.9,0.3c0.4,0.1,1.6-0.2,1.6-0.2c0,0,0-0.1,0.6-0.3
	c0.6-0.2,1.5-0.6,1.5-0.6l0.3,0.5l0.5,0.8l0.4,0.4l1.5,0.4h2l0.5-0.4v-1l0.4-0.9c0,0,0.4-0.3,0.9-0.5c0.5-0.2,1.1,0.7,1.1,0.7l0.4,1
	l0.6,0.9l1.3,0.3c0,0,1-0.4,1-0.4c0,0,0,0,0,0l0.1,0.4v1.4l0.6,2.9l0.4,1.4l0.6,1.3l1.3,1l1.2-0.3l1.2,0.3l0.5,1v0.8L178.4,242.3z"
	/>
<path class="st5" d="M195.5,293.3l-0.2,0.4l-1.3,1.6c0,0-0.9,1.3-1,1.4c-0.1,0.1-0.7,0.9-0.8,1.1c0,0.1,0.3,1,0.3,1l-0.3,0.9
	l-0.7,1.2c0,0-0.7,0.7-0.8,0.8c-0.1,0.1-1.4,1.4-1.4,1.4l-0.6,1.7c0,0-0.1,1.1-0.3,1.3c-0.2,0.1-0.2,0.8-0.3,0.8s-0.8,0.2-0.8,0.2
	s-1,0.1-1.1,0.1c-0.1,0-0.5,0.7-0.6,0.8c-0.1,0.1-0.8,0.1-0.9,0.1c-0.1,0-0.7,0.5-0.9,0.6s-1.4,0.8-1.4,0.8l-1.5,0.2
	c0,0-1.2,0.4-1.4,0.5c-0.1,0.1-0.3,0.3-0.4,0.5l-0.3-0.1l-1.4-0.4l-2.1-0.9l-1.7-0.4l-1.2-1.1l-0.6-1.5l0.1-0.4l0.1-1.5l-0.8-0.2
	h-1.5l-1.3,0.2l-1.2-0.2l-0.8,0.3l-1.1,0.3l-0.5-1l-0.4-0.4l-0.8-0.8v-1.8l-1-0.8l-1.8-0.3l-2.2,0.4l-1.6,0.2l-1.2-0.1l-1.4-0.3
	l-1.1-0.2c0,0-1.1,0.1-1.4,0.2c-0.3,0.1-0.9,0.1-0.9,0.1l-1,0.4l-0.9,0.3l-1.4-0.2l-0.5-0.5l-1,0.8l-0.3,0.6l-0.9,0.6l-2,1l-0.7,0
	l-1.4,0.1l-1.5,0.8l-0.3,0.6l-0.8,1.1l-0.4,0.8l-1.7-0.1l-1.5-0.8h-0.7l-1.7-0.5l-3.2,0.5c0,0-1.9-0.2-2.7-0.4
	c-0.7-0.2-0.8-0.2-0.8-0.2l-1.2,0.2l-1,0.2l-1.5-0.2l-1.5,0.2l-0.7-0.2l-0.6-1.3l-0.7,0l-1.2,0.1l-0.2-0.7l-0.3-0.9l-0.7-0.5
	l-1.1-0.2l-0.3-0.8l-0.6-1.2l-0.7-0.4l-0.6-0.9l-0.1-0.9l-0.3-0.3l-1.2,0.2l-1.1-1.3l-0.6-0.1c0,0-1.8,0.5-2.2,0.3
	c-0.4-0.2-0.9,1.2-0.9,1.2l0,0l-0.2-1l0.5-1.3l-0.2-1.3l-0.4-1.1l-0.1-1.5l0.1-0.9l0.5-1.2l0.8-0.6l1.4-1.3l1.3-1.3l1.2-1.8l0.6-1.1
	l0-1.7l0-1.2l1.2-0.7l0.9-0.2l0.3-0.7l0.1-0.8l0.7-1l1-1.1l0.8-1.1c0,0,0,0,0,0l0.4,0l1.5-0.3l0.9-0.5l0.4-0.8l0.8-0.4l1.2-0.2
	l0.4-0.6l0.6-1.4l0.4-0.5h1.2l0.6,0.6l0.9,0.3l1.2,0.5h1.9l2.2-0.5l1-0.7l2-1.3l1.5-1l1.6-0.5c0,0,0.5,0.3,0.8,0.4
	c0.3,0.1,1.4,0.7,1.4,0.7l1.2,0.2c0,0,2.2,0.1,2.4,0.1c0.2,0,2.3-0.8,2.3-0.8l1-1.4l0.3-0.4l1.2-1l1.8-0.5l1.2-0.5l0.6-0.7l1-1.1
	l1.2-1l0.7-0.8l0.8-0.4l0.7-0.1h0.7c0,0-0.3,0.5,0.1,0.5s1.3,0,1.3,0l0.5-0.2c0,0,0.8-0.5,1.2-0.8c0.4-0.3,1.2-0.4,1.2-0.4l0.7-0.1
	l0.4-0.6l0.7-0.2c0,0,0.2-0.5,0.2-0.8c0.1-0.4,0.4-1.3,0.4-1.3l0.8-0.8h1.1l0.8,1.2l0.3,1l1.6,1.4l1.4,1.2l0.6,1.2l0.4,1.7l0.2,1.1
	h-0.2l-1.3,0.2h-0.9l-1,0.6l-0.2,0.9l0,0.5l0.2,1l0.3,1l0.2,0.6l0.5,0.2c0,0,0.1-0.4,0.2-0.6c0.2-0.2,0.6-0.6,0.6-0.6l0.7-0.2
	c0,0,1.3,0,1.4,0c0.2,0,1.2,0.5,1.2,0.5l0.4,0.6l0.5,1.3l0.3,0.7l0.3,0.4c0,0,0.4-0.1,0.4-0.3c0-0.2,0.1-0.8,0.1-0.8l0.2-0.5
	l0.6-0.3l0.4,0.1l0.7,0.7l0.3,0.5l0.5,0.6l0.9,0.4l0.4,0.5l-0.5,0.9l-0.3,0.8c0,0-0.7,0.1-0.8,0c-0.1-0.1-0.9-0.3-1-0.3
	c-0.1,0-1.4,0.1-1.4,0.1l-0.4,0.7l-0.1,0.5l0.3,0.4l1.5,0.5l0.5,0.1l1,1.1l0.8,0.9l2.2,0.2l0.6,0.5l0.6,0.6l0.5,1.3l0.9,0.8l0.9,0.1
	c0,0,0.1-0.4,0.3-0.5c0.2-0.1,1-0.5,1-0.5l0.3,0.3l-0.1,0.9l-0.3,0.9l0.5,0.1h0.4c0,0,0.8-0.7,0.9-0.7c0.1,0,0.7,0.5,0.7,0.5
	l0.1,0.5l0.1,1l1,0.6l1.2,0.4l1.6,0.9l0.7,1.4l0.1,1.5l0.2,1.1l0.7,0.6l1,1.1l0.6,1.1l0.7,0.4l0.2,0.3L195.5,293.3z"/>
<path class="st5" d="M334.6,70c0,0.2-0.4,0.6-0.4,0.6l-0.5,0.8l-0.4,1.2l0,1l-0.7,1.2l-1.2,0.8l-0.7,0.4l0.2,0.6l0.2,1l-0.6,0.9
	l-0.7,0.9l-0.8,0.5l-0.8,0.3l-0.9,0.6c0,0-0.2,1.2-0.2,1.3c0,0.1-0.5,1.1-0.5,1.1l-0.9,1l-1.2-0.1l-0.9-0.2l-1.1-0.1l-0.9,0.8
	l-0.1,1.2l0.8,0.8l0.9,0.5l1.1,0.4l0.4,0.3l-0.1,0.7l0,1.2l-1.4,0.7l-1.2-0.3l-1.4-0.1l-0.8,0.4l-0.1,1.3l-0.1,1.2l-0.5,1.7
	l-0.2,1.7l-0.4,1.7l0.8,1.2l0.9,0.5c0,0,0.7,0.4,0.8,0.5c0.1,0,1.3,0.7,1.3,0.7l0.4,0.9l0.8,1l1,0.8l0.9,0.5l1.7,0.9l1.4,0.2
	l1.2-0.3l0.9-0.7l1.2-0.2l0.2,0.4l-0.4,1.3l-0.6,0.6c0,0-0.7,0.5-1,0.4c-0.3-0.1-0.8,0.3-0.8,0.3l-1,0.4l0.1,0.5l0.5,0.1l-0.8,0.3
	l-0.9,0.5L326,109l-1.4,0.9l-1,1.4l-1.3,0.7l-0.8,0.5h-4.2l-1.9,0.9l-2.3,1l-1.3,0.7l-0.5,1.4l-0.9,1.1v1.4l1,1.3l-0.5,1.6l-0.2,0.8
	l-1.3,1.3l-0.6,1.4l-0.6-0.5l-0.9-0.9v-1.4l0.5-2.4l-0.5-1c0,0-0.9-0.7-1.1-0.7c-0.2-0.1-2.2,0-2.7,0c-0.4,0-2-0.1-2-0.1l-1.9-0.6
	c0,0-1.8-0.8-2.2-1c-0.3-0.1-2-0.4-2-0.4s-1.6,0.5-2,0.7c-0.4,0.2-0.9,1.1-1.2,1.6c-0.3,0.5-0.9,1.4-1.1,1.7
	c-0.2,0.3-1.2,1.9-1.2,1.9l-1.8,1.1l-3,1.7c0,0-2.7,1.4-3.2,1.7c-0.5,0.3-2.4,0.4-2.4,0.4s-1.8,0.6-2.2,1.1
	c-0.4,0.5-3.7,1.2-3.9,1.3c-0.2,0.1-3.4,1.1-3.5,1.2c-0.1,0-1.6,1-2.9,1.9l-0.1-0.1l-0.4-1.2l-0.7-1.2c0,0-1.1-0.6-1.3-0.7
	c-0.3-0.1-1-0.7-1-0.7l-1.2,0l-0.5-0.6c0,0-0.7,0-1.1,0.2c-0.3,0.2-0.8,0.6-0.8,0.6l-0.8-0.1c0,0-0.6-0.3-0.8-0.3
	c-0.2,0-0.8,0.1-0.8,0.1l-0.5-0.2l-0.7-0.6l-0.5-0.9l-0.2-0.8l-0.9-0.9l-0.1-0.8l-0.3-1.3l-0.8-0.7l-0.7-1.6l0.1-1.3l0.3-0.9
	l0.3-0.9l-0.4-0.6l-0.5-1.2l0.2-1.3l1.3-1l-0.1-0.8l0.1-0.4l1-0.1l1.4,0.3l1.7,0.3l0.7,0l0.7-0.6l0.5-0.6l0.2-0.4l0.2-0.9l0.1-1
	l1.4-0.3l1.2-0.8l0.1-1.4l-0.4-0.9l-1-0.7l-1.1-0.5l-2.2,0.7c0,0-1.9,0.2-2,0.2c-0.1,0-1.5-0.1-1.5-0.1l-2.4-0.2l-2.3,0l-1.8,0
	c0,0-2.6,0-2.9,0c-0.3,0-2.3,0-2.3,0l-1.7-0.6l-1.4-1.4l-0.8-1.4l-1-1.6l-0.7-1.1l-1.3-0.9c0,0-1.2-0.7-1.4-0.8
	c-0.2-0.1-0.7-0.7-0.7-0.7l-1.7-1.3l-0.8-1.3l-1.3-1.2l-0.6-1.7l-0.2-1.3l-0.1-2.9c0,0-0.6-1.1-0.8-1.2c-0.1-0.1-0.5-0.1-0.5-0.1
	l-1.3,0.5l-0.5,1.1l-0.3,0.9l0,1.2l-0.6,1.3c0,0-0.2,0.4-0.6,0.6c-0.4,0.2-0.7,0.1-0.7,0.1l-2-0.6c0,0-1-0.4-1.1-0.4
	s-0.6,0.1-0.8,0.2c-0.1,0.1-0.3,1-0.3,1l0.4,1v0.8l-0.2,0.7l-0.7,0.1l-1.1-0.7c0,0-1.4,0-1.6,0c-0.1,0-0.4,0.2-0.6,0.4l-0.2-0.6
	l-0.3-1.3l-2.2-1.2l-0.7-1.4l-0.1-1.6l0.1-1.8l-1.2-1.8l-0.1-1.5l-0.6-1.4V78c0,0-0.8-1.2-1.1-1.7c-0.3-0.5-0.3-1.6-0.3-1.6v-1.8
	l-1-1.3l-2-1.1l-1.6-0.8l-1.5-0.5l-1.1-1.2l-1-1.6l-0.2-1.9l-0.7-1.9l-0.9-1.6l-0.6-0.5l-0.4-1.2l-0.3-1.2l-0.4-0.6l0.2-1l1.4-1.1
	l2.2-1.4l2.3-2.3l0.8-1.8l1-0.4l0.6-0.6l0.2-1.4l0.2-1.5l0.5-0.7l1.4-0.1l0.9,0L210,45l0.7-1.1l0.3-1.1l0.5-1l1.1-1l1.2-0.9l1.2-1.6
	l1-0.3l1.8,0.1l0.7,0.7l0,1.1l-0.4,0.8l0.5,0.5l1,0.1l0.8-0.4c0,0,0.8-0.8,1-0.8c0.2-0.1,0.6,0.1,0.6,0.1l1.2,1.1l1.2,1l2.1-0.1
	l1-0.2l2.4-0.1l1.2-0.9l1.1-1.5l0.8-0.3l1.5,0.5l1.3,0l0.8-0.8l0.2-1.8l0.7-3l-0.4-1.8l-0.7-0.8l-0.9-0.8l-0.9-1c0,0-0.5-1-0.5-1.1
	c0-0.1-0.1-0.8-0.1-0.8l0.3-0.2l0.9,0.5l0.7,0.4l0.7,0.5l0.5-0.1l0.7-0.9l0.5-1l-0.2-2.2l-0.3-1.1l-0.2-1.5l0.1-1.7l-0.1-1.2
	c0,0,0.3-1,0.3-1.2c0-0.2,0.9-1.4,0.9-1.4s0.1-0.7,0.1-1c0-0.3,0.9-0.5,0.9-0.5l1.1-0.8l1.5-0.4l1.6-0.5l0.5-0.8l1.3,0.2
	c0,0,1.6,0.1,1.8,0.1c0.1,0,1.4,0,1.4,0l1.3-0.2l1.3-0.3c0,0,1.6,0.2,1.8,0.3c0.1,0,1.1,0.5,1.1,0.5s1.5,0,1.6,0
	c0.1,0,1.1-0.2,1.1-0.2l0.9-0.8l0.2-1.1l-0.3-1.5l0-0.8l1-0.8l1-0.9l0.5-1l1.7,0.1l1.4,0.1l0.7,0.7l0.9,0.1l1.4-0.8l1.3-0.9
	c0,0,0.9-0.6,1-0.6c0.1,0,1.3-0.5,1.3-0.5l0.8-0.6l0.7-0.3l0.9,1l1,1.4l0.7,1.3l0.7,1l1.5,2l1.3,1.5l1.1,1.4l1,0.6l1.7,1.5l0.5,0.6
	l0.3,1.2l-0.2,1.3l0,0.8c0,0,0.9,1,0.8,1.1c-0.1,0.2,0.9,1,0.9,1l-0.4,1.2l-1,0.6l-1.4,0.9l-0.1,0.8l0.9,0.8l1.9,1.3l0.8,0.1
	l1.6,0.5l0.2,0.8l-0.6,1.7l0.3,1.2l1.5,0.8l0.6,0.9l-0.7,1l-0.4,0.9l0.9,0.5l0.8-0.2l1.7-0.4l0-0.7l0.5-1.6c0,0,0.5-0.4,0.7-0.5
	c0.2,0,0.5,0.7,0.5,0.7l1.1,1l0.2,0.8l-0.8,1.1l0.2,0.5l0.7,0.8l0.5,0.7L294,39l-0.5,0.8c0,0-0.1,0.9-0.1,1.1c0,0.2,0.6,1,0.6,1
	l1,0.8l0.6,1.3l-0.5,1.3c0,0,0,1.1,0,1.2c0,0.1-0.4,1.4-0.4,1.4l-0.8,0.9l-1.1-0.3l-0.3-1c0,0-0.4-0.7-0.6-0.8
	c-0.2-0.1-0.5-0.3-0.5-0.3s-1.4,0.2-1.7,0.2c-0.3,0-1.1,1-1.1,1L288,49l0.1,1.7l0.6,0.6l0.3,1.1l0.2,0.8l1,1.1l0.8,0.9l-0.1,1
	l0.3,1.1l0.8,0.9l1.5,0.2l1.1,0.1l0.8,0.8l-0.2,1.5c0,0-0.1,1.5-0.3,1.7c-0.1,0.2-0.7,0.7-0.7,0.7l-0.5,0.7l0.8,0.7l1.4,0.2l0.6,0.7
	c0,0,0.1,0.9,0.1,1c0,0.1,0.6,1.3,0.6,1.3l0.2,0.7l-0.5,1.1c0,0-0.2,1-0.2,1.2s0.7,0.3,0.8,0.4c0.2,0.1,0.4,0.7,0.5,0.7
	c0.2,0,0.9,0,0.9,0l0.6-0.6l1.1-0.5l2-0.7l2.6-0.3l2.1-0.2l2.5,0.1l2.2,1.1l1,0.2l0.8-0.5l0.9-0.8l0.6-1l1-0.2l0.6,1.1l0.6,0.8
	l0.8,1l0.6,0.3l2.1-0.4l1.5,0.2l2.4,0.2l1.8,0l1.6,0.2l1.7-0.5l1.2-0.8l1-0.8l0.8-0.4l0.9-0.3C334.2,69.3,334.6,69.8,334.6,70z"/>
<path class="st5" d="M339.4,169.7c-0.1,0-0.2,0.1-0.2,0c-0.2-0.1-1.3,0-1.6,0c-0.2,0-0.4,1-0.4,1l-0.8,0.4l-0.9,0.3l-0.4,0.5
	l-0.3,0.8l-0.7,0.3l-0.8-0.1l-0.1,0.3c0,0,0.3,0.5,0.3,0.8c0,0.3-0.6,0.4-0.6,0.4l-1,0.1l-0.9,0.2l-0.6,0.3L330,175
	c0,0-0.4-0.2-0.4-0.4c0-0.1-0.6,0.6-0.6,0.6l0.3,0.6l0.1,0.5l-0.4,0.3l0,0.5l-0.2,0.9l-0.6,0.3l-0.8,0.8l-0.2,0.6l-0.6,0.2l-0.4-0.4
	l-0.6,0.2l-1.2,0.5l-0.5,0.8l-0.7,0.6l-1.4-0.2l-0.5-0.2c0,0-0.7,0.2-0.8,0.3c-0.2,0.1-0.6,0.8-0.6,0.8l-0.4,0.3l-0.2-0.4
	c0,0,0.4-1,0.5-1.1c0-0.2-0.1-0.6-0.1-0.6l-0.5-0.2c0,0-0.7,0.2-0.9,0.4c-0.2,0.1-0.7,0.4-0.7,0.4l-0.7-0.1l-0.5-0.2l0.7-0.9v-0.8
	c0,0-0.8-0.4-0.9-0.4c-0.1,0-1.1,0-1.1,0l-0.6,0.7l-0.5,0.8v0.7l-0.3,0.6l-1.1-0.1l-1.1-0.4l-1,0.3c0,0-1.4-0.1-1.6-0.2
	c-0.2,0-0.7,0.4-0.9,0.3c-0.2-0.1-0.5,0.5-0.5,0.5l-1-0.2l-0.8,0.1c0,0-1,0.2-1.4,0.3c-0.4,0.1-1.6,0.5-1.6,0.5l-1.6,0.4l-1.7,0.3
	l-2.2-1l-0.9-1.6c0,0-0.8-0.9-1.1-1c-0.3-0.2-0.8-0.6-1.1-0.5c-0.3,0-1.3-0.1-1.3-0.1l-0.4,0.1l-0.7,0.7l-0.2,0.9l-0.4,0.4
	c0,0-0.4,0.3-0.6,0.3c-0.2,0-0.8-0.5-1-0.6c-0.2-0.1-0.5-0.3-0.5-0.3l-1-0.1l-0.5-0.5v-0.6l-0.2-0.7h-1.2l-0.4-0.5l0-1l-0.2-1.6
	l-1.3-0.4c0,0-0.8,0.2-1.2,0.3s-0.9,0.1-1.5,0.2c-0.6,0.1-0.8,0.1-0.9,0.1c-0.1,0-1.2-0.1-1.4-0.1c-0.1-0.1,0-0.5,0-0.5l0.6-0.2
	l0.2-0.5l0-0.5l-0.4-0.3l-0.9-0.1l0.2-1l0.7-0.5l0.9-1.1l0.4-1l0.1-1.1v-1.6l0.3-1.3l0.6-2.1c0,0,0.1-1,0.1-1c0-0.1-0.7-1-0.7-1
	l-0.8,0.1l-1.4,0l-1.1-0.2h-1.3l-1,0.2l-1.1,0.3c0,0-0.4,0.8-0.6,0.9c-0.2,0.1,0,0.7,0,0.8c0,0.1-0.1,1.2-0.1,1.2l0,1l-0.4,0.1
	l0-0.4l-0.4-0.9l-0.6-0.2V163l-0.4-0.5l-0.6,0.4c0,0-0.4,0.2-0.7,0.2c-0.3,0.1-0.3-0.7-0.3-0.7l-0.5,0.2l-0.5-0.7l0.1-0.5l0.6-0.5
	l0.4-0.7l0.5-0.5l0.2-1l0-0.6l-0.8-1.5l-0.2,0l-0.5-0.5l-0.6-0.1l-0.7,0.2l-0.5-0.6l0.2-0.9l-0.1-0.8l-0.9-1.1l-0.4-0.8l0.5-1.4
	l-0.2-1.2l-0.8-0.9l-0.5-1.2l-0.1-1.2l-0.2-0.9l-0.1-1.3l0.5-1.1l0.9-0.7l1.4,0.2l1.3,0.3l1.2-0.1l1.3-0.3l1.2,0.6l0.4,0.5l1.5,0.3
	l0.8-0.8l0.2-1.1l-0.4-0.5l-0.2-1l0-1.4l-0.3-1l-0.6-1.1l-0.8-0.5l-2.2-0.4l-2.4-1.2l-1.3-1.3l-0.7-0.9c1.3-0.9,2.8-1.9,2.9-1.9
	c0.2,0,3.3-1.1,3.5-1.2c0.2-0.1,3.5-0.7,3.9-1.3c0.4-0.5,2.2-1.1,2.2-1.1s1.9-0.2,2.4-0.4c0.6-0.3,3.2-1.7,3.2-1.7l3-1.7l1.8-1.1
	c0,0,1-1.6,1.2-1.9c0.2-0.3,0.7-1.2,1.1-1.7c0.3-0.5,0.8-1.5,1.2-1.6c0.4-0.2,2-0.7,2-0.7s1.7,0.3,2,0.4c0.3,0.2,2.2,1,2.2,1
	l1.9,0.6c0,0,1.5,0.1,2,0.1c0.4,0,2.5-0.1,2.7,0c0.2,0.1,1.1,0.7,1.1,0.7l0.5,1l-0.5,2.4v1.4l0.9,0.9l0.6,0.5l1.7,1.4l2.9,2
	c0,0,1.9,0.7,2.6,0.9c0.6,0.2,3.2,0.7,3.4,0.7c0.2,0,1.9,0.4,2.1,0.5s1.8,0.9,1.8,0.9l1,1.7v1.9c0,0-2,1.5-2.1,1.6s-0.7,1.3-0.7,1.3
	l0.3,2.6l0.3,1.3l-0.4,1.8l-1.7,2.5l-0.2,1.9l-0.4,2.5l-1,1.3l-1.1,1l-0.4,1.8l0.4,0.9l0.9,1.7l0.9,0.8l0.9,1.3l1,0.5l1.2,0.7
	l-0.1,1.5l0.5,1.5l1.6,0.2c0,0,1.7-0.4,1.8,0c0.1,0.4,0.6,0.1,0.7,0.6c0.1,0.5-0.5,1-0.5,1l0.2,0.6h1.2v1.3c0,0,0.8,0,1,0.2
	c0.2,0.3,1-0.1,1-0.1l0.8,0l1.4,0.4c0,0,0.3,0,1.1,0c0.8,0,2.3-0.2,2.3-0.2l1.8,0.2L339.4,169.7z"/>
<path class="st5" d="M363,139.2c0,0.2-0.3,0.4-0.4,0.4c-0.1,0-0.9-0.2-0.9-0.2l-0.7,0.5l-0.8,0.6l-0.5,1c0,0-0.6,0.3-0.8,0.4
	c-0.3,0-1.7,0.3-1.7,0.3l-1.4,0.3l-1.5,0.5l-1.7,1.3l-1.2,0.2l-1.7,0.2l-0.5,0.9l-0.3,0.9l-0.4,0.7c0,0,0,0.6,0.1,0.8
	c0.1,0.2,0.3,0.8,0.3,0.8l-0.5,0.6l-1.6,0.2c0,0-0.9,0.5-0.9,0.6c-0.1,0.1-1.3,0.5-1.3,0.5s-0.9,0.3-1.3,0.3
	c-0.4,0.1,0.1,0.5,0.1,0.5l-0.5,0.7l-1.1,1.1l-0.4,1.4c0,0-0.2,0.8-0.4,0.9c-0.1,0.1-0.5,0.7-0.4,0.9c0.1,0.2,0,0.7,0,1
	s-0.5,1-0.5,1l-0.3,1l-0.1,0.8c0,0-0.8,0.8-0.8,0.9c0,0.1,0,0.2,0,0.2l0.1,0.4c0,0-0.2,0.6-0.2,0.8c-0.1,0.1-0.1,0.8-0.1,0.8
	l-0.4,0.9l-0.5,1.4l0.8,0.9l-0.2,0.7l0.3,0.3l0.6-0.4l0.5,0.5v1.4c0,0-0.2,0.3-0.4,0.4l-2.5-1.9l-1.8-0.2c0,0-1.5,0.2-2.3,0.2
	c-0.8,0-1.1,0-1.1,0l-1.4-0.4l-0.8,0c0,0-0.8,0.4-1,0.1c-0.2-0.2-1-0.2-1-0.2V166h-1.2l-0.2-0.6c0,0,0.5-0.5,0.5-1
	c-0.1-0.4-0.6-0.1-0.7-0.6c-0.1-0.4-1.8,0-1.8,0l-1.6-0.2l-0.5-1.5l0.1-1.5l-1.2-0.7l-1-0.5l-0.9-1.3l-0.9-0.8l-0.9-1.7l-0.4-0.9
	l0.4-1.8l1.1-1l1-1.3l0.4-2.5l0.2-1.9l1.7-2.5l0.4-1.8l-0.3-1.3l-0.3-2.6c0,0,0.6-1.2,0.7-1.3s2.1-1.6,2.1-1.6v-1.9l-1-1.7
	c0,0-1.6-0.8-1.8-0.9s-1.9-0.5-2.1-0.5c-0.2,0-2.7-0.5-3.4-0.7c-0.6-0.2-2.6-0.9-2.6-0.9l-2.9-2l-1.7-1.4l0.6-1.4l1.3-1.3l0.2-0.8
	l0.5-1.6l-1-1.3v-1.4l0.9-1.1l0.5-1.4l1.3-0.7l2.3-1l1.9-0.9h4.2l0.8-0.5l1.3-0.7l1-1.4l1.4-0.9l1.5-0.6l0.9-0.5l0.8-0.3h0l0.7,0.1
	l1.5,0.3l1.6,0.2c0,0,1.8,0.4,1.9,0.5c0.2,0.1,0.6,0.9,0.6,0.9l0.1,1.4l1.8,0.7l0.8-0.4l1.6-0.2l0.8,0.5l1-0.6l0.9-0.6l1.1,0.7
	l1,0.1l1.3-0.4l1.5-1.2l1.2,0.3l0.6,0.9l0.5,1.1c0,0-0.4,0.7-0.4,0.9c0,0.2,0.2,1.6,0.2,1.6l0.4,1.2l-0.1,2.1l0.1,2
	c0,0,0.5,1.3,0.5,1.5c0.1,0.1,0.6,0.8,0.6,0.8l0.8,1.9l0.2,1.4l1.1,0.9l0.9,0.5l1.7,0.5l1.4,1.4c0,0,0.3,1.1,0.4,1.2
	c0,0.1,0.3,0.9,0.3,1.1c0,0.2-0.1,1.1-0.1,1.1l0.2,1.6l0.3,1.4l0.3,0.6l2,0.3l1.2,0.4l0.7,1l0.1,0.8l0.4,0.4
	C363,138.4,362.9,139,363,139.2z"/>
<path class="st5" d="M253.4,149.4c-0.1-0.1-1.1-0.6-1.1-0.6l-1.1,0.1l-0.5-0.3l-0.9-0.5l-0.9-0.7l0.3-1.1l-0.4-0.7l0.4-0.6l0.3-0.5
	l0.6-1l0.9-0.9c0,0,0-0.9,0-1c0-0.1,0-1.5,0-1.5l-0.3-0.5c0,0,0-0.7,0-0.8c0-0.1,0.5-0.7,0.5-0.7l0.9,0.2l0.5-0.6l-0.3-0.8l-0.3-0.1
	h-0.2l-1.8,1.6h-2.2l-2.6,0.2l-1.1,0.9l-1,0.6l-1.3-0.4l-2.4-0.4l-2,0l-1.2,0.4l-1.7,0.5l-0.5,0.8v0.9l-0.4,0.9l0.1,1.2l0.9,0.9
	l-0.3,0.8l0,1.3l0.5,0.8l1.1,0.2l0.6,1l0.6,0.3l0.6,0l1.6,0.9l0.8-0.6l0,0.5l0.5,1.5l0.3,0.7l0.2,0.9l-0.7,1.5l-0.3,1.3l-0.4,1
	l-1,1.7l-0.1,1l1,0.2h0.4l0.7,0.1l0.5,0.5l0.3,0c0,0,0.2,0.5,0.5,0.5c0.2,0,0.6-0.3,0.8-0.2c0.2,0.1,1.1-0.6,1.1-0.6s0,0,0.3,0
	c0.2,0,1.1,0,1.1,0l1.1,0.1l0.8,0.3l1.2,0.4c0,0,0.5-0.1,0.7,0c0.1,0.1,0.6-0.2,0.7,0c0.1,0.2,0.4-0.4,0.4-0.4l0.2-0.5
	c0,0,0-0.5,0-0.7c0-0.1,0.2-1.5,0.2-1.5l-0.2-1.1l0.2-1.4c0,0,0.2-0.4,0.3-0.6c0.1-0.2,0.5-0.7,0.5-0.7l0.2-1l-0.5-0.4l-0.8-0.7
	c0,0-0.3-0.2-0.5-0.3s-0.2-0.4-0.2-0.4l0.3-0.3l0.3,0.1l1.1-0.1l0.7-0.5l1.1-0.1l0.4-0.8C253.6,149.6,253.5,149.5,253.4,149.4z
	 M239.1,186.3l-0.5,1l-0.4,0.7c0,0-0.5,0.6-0.7,0.7s-0.5,0.4-0.5,0.4s-0.2,0.2-0.2,0.5c0,0.3-0.7-0.1-0.7-0.1l-0.6-0.3l-0.4,0.3
	l-0.2,0.6l-0.5,0.3h-0.8l-0.3,1l-0.2,1.3l-1,1.2c0,0-0.8,1-1,1.3c-0.2,0.3-0.3,1.1-0.3,1.1l0.6,1.3l0.2,1.5c0,0,0.1,1.3,0.1,1.4
	c0,0-0.2,1.4-0.2,1.4l0.2,1.7l1,1.6l0.3,0l-0.2,0.4l0,0.5c0,0,0.1,1.1,0,1.7c0,0.6,0.3,1,0.3,1s0.4,1.2,0.3,1.7
	c-0.1,0.4-0.3,0.8-0.5,0.9c-0.2,0.2-1.6,0.7-1.6,0.7s-1.5,0.9-1.7,1.1c-0.2,0.2-0.3,0.3-0.8,0.5s-0.1,1.3-0.1,1.3s0.1,0.9,0.1,1.2
	c0,0.3,0,0.6-0.3,1.2c-0.3,0.6-0.5,1-0.5,1l0.5,0.8v0.8c0,0-0.5,0.4-1.3,0.4s-0.9-0.4-0.9-0.4s-1.4-0.8-2.1-1.1
	c-0.7-0.2-1.7,0.1-1.7,0.1l-2-0.2l-0.8-1l-0.6-1.3v-1.5l-0.7-1.5l-1.2-1.2l-0.5-1.5l0.2-1.4l0.9-1.3l0.7-1.1l0.5-1.6l-0.6-1.3
	l-0.6-0.5l-1.5-0.7l-1.2-0.4l-1.7-0.9l-1.6-0.6l-1.2-1.2l-0.8-1.9l-0.7-1.4l-0.1-0.1h0.5l1.5-0.3l1.1,0.2l0.9-0.8l0.9-0.8l0-0.7
	c0,0-0.3-0.8-0.4-0.8c0,0-0.3-0.7-0.3-0.8c0-0.1,0.2-0.7,0.2-0.7s1-0.8,1-0.8l-0.2-0.9l-0.4-1.4c0,0-0.5-0.7-0.6-0.7
	c-0.1,0-2.2-1-2.2-1l-1.2-1l0.1-0.9l-0.1-0.1l-0.5-0.6l0.2-0.4l-0.2-0.2v-2.5l0.1-2.9l0.1-1.5l-1-1.4l-1-1.3l-0.3-1.1l0.1-0.9l0.1-1
	l0.7-1l1.5-1.5l2.2-1.3l0.1-0.1c0.2,0.4,0.4,0.8,0.4,0.8l1.1,0.8l1.1,0.5l0.5,1l0.8,0.6l1.2,0.1l1.2-0.3c0,0,0.5,0.1,0.7,0.3
	c0.2,0.1,0.7,0.6,0.7,0.6h0.7l0.3-0.6l-0.1-1.4l-0.3-0.7l-0.5-0.6l-0.2-0.7l0.3-0.6l1.4-0.6l1.7-1l0.8-0.7l0.5-1.1l0.8-1.3l1.1-0.5
	l1.3,0.3l1.8,0.4h1.5l0.8-0.3l1-0.4l1,0.5l0.6,0.7l0.7,1.3l0.5,1l0.2,0.9l-0.2,1l-0.3,0.7l0.5,1.3l0.3,0.6l0.7,0.7l0.4,0.8l0,1
	c0,0-0.4,1-0.5,1.2c-0.1,0.2-0.3,0.8-0.3,0.9c0,0.1,0.4,0.4,0.4,0.4l0.7-0.4l0.9-0.3l0.5,0.9l-0.5,1.2l-0.5,1.3l0,1l0.7,0.5l0.2,1.4
	l-0.7,1.2l-0.6,0.8l-0.3,0.7l0.5,1.2l0.7,0.6l0.9,0.9L239.1,186.3z"/>
<path class="st5" d="M213.9,193.6l0,0.7l-0.9,0.8l-0.9,0.8l-1.1-0.2l-1.5,0.3h-0.5l-1.1,0l-1.7,0.1c0,0-0.7,0.4-0.8,0.5
	c-0.1,0-1.1,1-1.1,1s-0.6,0.7-0.6,0.8c0,0.1-0.4,0.8-0.4,0.8l-0.2,0.6l-0.5,1.9l-0.3,0.6l-0.2,0.7l-0.8,0.8l-0.8,0.9h-0.4l-2.8,1
	l-0.4,0.6l-1.1,1.5l-1.3,1l-1-1l-1.4,0.8l-1.1,0.1l-1.3-0.4c0,0-0.6,0.5-0.7,0.6c-0.1,0.1-1-0.2-1-0.2l-1.6-1.2c0,0-0.6,0.2-0.9,0.4
	c-0.3,0.2-0.7,0.8-0.7,0.8l-0.6-0.1l-1.1-0.4c0,0-0.4,0.5-0.5,0.7c-0.1,0.2-0.3,0.8-0.3,0.8s-0.3,0.3-0.5,0.3
	c-0.2,0-0.9,0.5-0.9,0.5h-1.1l-0.6-0.4l0-0.5l0.7-0.4l-0.3-0.7l-0.3-0.1c0,0-0.6,0.7-0.7,0.7c-0.1,0-0.5,0.5-0.5,0.5l-0.5-0.2V209
	l0.4-1.2v-0.9l0.3-1l1.1-0.4l0.8-0.5l-0.2-1v-0.9l0.5-0.5h1.2l1.4-0.7l0.8-0.5l0.5-0.6l0.1-0.5l-1-0.9l-0.1-1.3l-0.4-0.5
	c0,0,0-0.7,0-0.9c0-0.2,0.6-0.4,0.6-0.4l0.8-0.8l0.2-0.9l0.1-1.1l0.1-0.8l0.6-0.7l-0.5-0.7l-0.3-1l0-1.3l-0.3-1.2l0-1.2l-0.1-1
	l-0.3-0.3v-0.7l0.4-0.8l0.6-0.3l1.1-0.3l1.1-0.2l1.2,0l1-0.2h0.5l0.6-0.3l0.7,0c0,0,0,0.5,0,0.6c0,0.1-0.2,0.6-0.2,0.6l0.3,0.7
	l0.7,0.4l0.9,0.2l1.5-0.6l0.7-0.1l0.6,0.1l0.6-0.3l0.5,0.1l0.3,0.7l1.2,0l0.7,0.4l0.6-0.4h0.6l1-0.2l1-0.3l0.2-0.5l-0.2-1v-0.9
	l0.2-0.7l0.9-0.8h2.9l1.2,0.3l1.2,1.9l2,2l0,0l0.1,0.1l-0.1,0.9l1.2,1c0,0,2.1,1,2.2,1c0.1,0,0.6,0.7,0.6,0.7l0.4,1.4l0.2,0.9
	c0,0-0.9,0.7-1,0.8s-0.2,0.6-0.2,0.7c0,0.1,0.2,0.8,0.3,0.8C213.6,192.8,213.9,193.6,213.9,193.6z"/>
<path class="st5" d="M178.4,336.9l0.5,1.3l-0.2,1.2l-0.1,0.9c0,0-0.1,1.1-0.1,1.2c0,0.1,0,0.6-0.1,0.8c-0.1,0.2-0.5,0.3-0.5,0.3
	l-0.6-0.8l-0.7-0.2l-0.2,0.2l-0.3,1c0,0-0.3,0.4-0.4,0.4c-0.1,0-0.9-0.1-0.9-0.1s-0.4,0.5-0.4,0.6c0,0.1-0.6,0.6-0.6,0.6l-1,0
	l-0.8-0.5l-0.4-0.9l-0.5-1l-0.9-0.3l-0.7-1.3l-0.6-0.5l-0.8-0.2l-1.2-0.2l0-0.7l-0.7-0.2l-1.2,0.1l-1.8,0.4l-0.2,0.6l-1,0.8
	l-0.9,0.7c0,0-0.5,0.9-0.6,1.1c-0.1,0.2-0.3,1.2-0.3,1.2l-0.8,1.4l-0.9,0.6l-1.1,0.4l-1.1,0.3l-0.3,0.7h-1l-0.2-0.9l-0.2-1.1
	l-0.1-0.9l-0.2-1l-0.5-0.5c0,0-1.5-0.2-1.8-0.3s-1.5-0.1-1.5-0.1l-1.4-0.2l-0.7-0.3c0,0-1.1-0.1-1.2-0.1c-0.1,0-0.9-0.3-0.9-0.3
	l-1.2-0.2l-1.1,0.6l-1.1,0.2l-1.6,0.2l-1.1-0.1l-0.7-0.6l-0.7-0.6l-0.8-0.3l-1.1-0.1l-1-0.8l-0.8-0.8l-1.2-0.4l-1.1-0.5l-1.4-0.6
	l-1.1-0.8H128l-0.8-0.8l-0.8-0.3h-1.1l-0.8-0.2l-0.4-0.5l-0.8,0.2l-0.8,0.5c0,0-0.8-0.1-1-0.1c-0.2,0-0.7-0.2-0.7-0.2l-1.2-0.4
	c0,0-0.5,0-1,0.1c-0.5,0.1-0.6,0.3-0.6,0.3l-0.9-0.3l-0.4-0.3l0-0.7l0.4-0.5l0.5-0.5l-0.4-0.7l-0.8-0.7l-0.9-0.6l-0.7-0.1l-0.7-0.2
	c0,0-0.6-0.2-0.8-0.2c-0.1,0.1-0.2,0.4-0.2,0.6c0,0.1,0.2,0.4,0.2,0.4l0.3,0.4l-0.2,0.3l-0.1,0.2h-0.4l-0.4-0.6c0,0-0.1-0.3-0.2-0.4
	c-0.1-0.1-0.2-0.1-0.2-0.1l-0.3,0.4l-0.2,0.3c0,0-0.5,0-0.6,0c-0.1,0-0.4,0-0.4,0l-0.4-0.3l-0.6-0.3l-0.4-0.4c0,0-1,0.1-1.1,0.1
	c-0.1,0-0.9,0.2-0.9,0.2l-0.2,0.5l-0.5,0.2h-0.6l-0.6-0.4l-0.9-0.6l-0.9-0.3l-0.6-0.6l-0.3-1.3l-0.6-1.1l-0.6-1.1h-1.1l-1.1-0.7
	l-1-0.4l-1-0.1l-0.7-0.7l-0.6-0.6l-1-1.1l0-0.9l0.5-0.6l0.9-0.9l0.2-0.9l-1.2-0.9l-0.5-0.6l-0.1-0.6l-0.3-0.8l-0.4-0.4l-0.9-0.2
	l-0.9-0.6l0.6-0.8l0.8-1.5v-0.9l-0.6-0.5l-0.4-0.3l-0.1-0.6l0.7-0.2l1.2,0.2l2-0.4l1.1-0.3l1.3-0.7l0.8-0.4l1-1l0.2-1l-0.4-1.6
	l0.5-1.3l0.6-0.8l1.2,0l0.3,0.8l0.3,0.8h0.7l1-0.3l0.6-1.2l-0.4-1.7l-0.1-0.8l-0.4-1.1V298l0.6-0.8l0-0.2l0,0c0,0,0.5-1.4,0.9-1.2
	c0.4,0.2,2.2-0.3,2.2-0.3l0.6,0.1l1.1,1.3l1.2-0.2l0.3,0.3l0.1,0.9l0.6,0.9l0.7,0.4l0.6,1.2l0.3,0.8l1.1,0.2l0.7,0.5l0.3,0.9
	l0.2,0.7l1.2-0.1l0.7,0l0.6,1.3l0.7,0.2l1.5-0.2l1.5,0.2l1-0.2l1.2-0.2c0,0,0.1,0,0.8,0.2c0.8,0.2,2.7,0.4,2.7,0.4l3.2-0.5l1.7,0.5
	h0.7l1.5,0.8l1.7,0.1l0.4-0.8l0.8-1.1l0.3-0.6l1.5-0.8l1.4-0.1l0.7,0l2-1l0.9-0.6l0.3-0.6l1-0.8l0.5,0.5l1.4,0.2l0.9-0.3l1-0.4
	c0,0,0.6,0,0.9-0.1c0.3-0.1,1.4-0.2,1.4-0.2l1.1,0.2l1.4,0.3l1.2,0.1l1.6-0.2l2.2-0.4l1.8,0.3l1,0.8v1.8l0.8,0.8l0.4,0.4l0.5,1
	l1.1-0.3l0.8-0.3l1.2,0.2l1.3-0.2h1.5l0.8,0.2l-0.1,1.5l-0.1,0.4l0.6,1.5l1.2,1.1l1.7,0.4l2.1,0.9l1.4,0.4l0.3,0.1
	c-0.2,0.3-0.4,0.6-0.4,0.6s-0.5,0.8-0.5,0.9c0,0.1-0.7,1-0.7,1l-1,0.6l-0.5,0.9l-0.7,1.1c0,0-0.6,0.7-0.8,0.8
	c-0.1,0.2-0.8,0.6-0.8,0.6l-0.6,1l-0.5,0.6l-0.1,0.6l-0.5,0.4l0.3,1l-0.2,0.6c0,0-0.6,0.9-0.9,1c-0.3,0.1-0.3,1-0.4,1.1
	c-0.1,0.1-0.3,1.3-0.3,1.4c0,0.1,0.5,1,0.5,1l0.3,0.9l-0.2,0.8c0,0,0,0.6,0.1,0.8c0.1,0.1,0.8,0.5,0.8,0.5l0.8,0.7l0.6,1.1l0.1,1.7
	l0.4,0.7l0.6,0.5l1.2-0.3l0.6,0c0,0,0.4,1,0.4,1.2c0,0.2,0.3,1,0.4,1c0,0.1,1.1,0.9,1.1,0.9L178.4,336.9z"/>
<path class="st5" d="M211.9,164.9v0.6l-0.1,1.1l0,0.3l-2.2,1.3l-1.5,1.5l-0.7,1l-0.1,1l-0.1,0.9l0.3,1.1l1,1.3l1,1.4l-0.1,1.5
	l-0.1,2.9v2.5l0.2,0.2l-0.2,0.4l0.5,0.6l0,0l-2-2l-1.2-1.9l-1.2-0.3h-2.9l-0.9,0.8l-0.2,0.7v0.9l0.2,1l-0.2,0.5l-1,0.3l-1,0.2H199
	l-0.6,0.4l-0.7-0.4l-1.2,0l-0.3-0.7l-0.5-0.1l-0.6,0.3l-0.6-0.1l-0.7,0.1l-1.5,0.6l-0.9-0.2l-0.7-0.4l-0.3-0.7c0,0,0.2-0.5,0.2-0.6
	c0-0.1,0-0.6,0-0.6l-0.7,0l-0.6,0.3h-0.5l-1,0.2l-1.2,0l-1.1,0.2l-1.1,0.3l-0.6,0.3l-0.4,0.8v0.7l0.3,0.3l0.1,1l0,1.2l0.3,1.2l0,1.3
	l0.3,1l0.5,0.7l-0.6,0.7l-0.1,0.8l-0.1,1.1l-0.2,0.9l-0.8,0.8c0,0-0.6,0.2-0.6,0.4c0,0.2,0,0.9,0,0.9l0.4,0.5l0.1,1.3l1,0.9
	l-0.1,0.5l-0.5,0.6l-0.8,0.5l-1.4,0.7h-1.2l-0.5,0.5v0.9l0.2,1l-0.8,0.5l-1.1,0.4l-0.3,1v0.9l-0.4,1.2v0.5l0.5,0.2
	c0,0,0.4-0.4,0.5-0.5c0.1,0,0.7-0.7,0.7-0.7l0.3,0.1l0.3,0.7l-0.7,0.4l0,0.5l0.6,0.4h1.1c0,0,0.6-0.5,0.9-0.5c0.2,0,0.5-0.3,0.5-0.3
	s0.2-0.6,0.3-0.8c0.1-0.2,0.5-0.7,0.5-0.7l1.1,0.4l0.6,0.1c0,0,0.5-0.6,0.7-0.8c0.3-0.2,0.9-0.4,0.9-0.4l1.6,1.2c0,0,0.9,0.3,1,0.2
	c0.1-0.1,0.7-0.6,0.7-0.6l1.3,0.4l1.1-0.1l1.4-0.8l1,1l1.3-1l1.1-1.5l0.4-0.6l2.8-1h0.4l0,0l-0.5,0.5l-0.1,0.4l-0.1,0.4l-0.1,0.4
	v0.8l0.3,2l-0.4,1.3c0,0,0.1,1.8,0,2c-0.1,0.3-0.7,1.8-0.7,1.8l-0.6,1.5l-2.3,1.2l-1.5,0.7l-1.8,0.5l-1.9,1.4l-0.7,2.9v3l-0.1,0
	l-1.5,1.1c0,0-0.4,0.6-0.8,1.2c-0.3,0.6-1.6,0.2-2,0.3c-0.4,0.1-1.1-0.1-2,0.1c-0.9,0.2-1.3-0.6-1.9-0.5c-0.6,0.1-0.5-0.5-1.1-1
	c-0.6-0.4-1.4,0.5-1.6,0.7c-0.2,0.2-0.8,0.6-0.8,0.6l-0.9,0l-1.8-0.1l-0.6,0.9c0,0-0.6,1.4-0.9,1.6c-0.2,0.2-0.8,0.6-0.9,0.7
	c0,0,0,0,0,0c-0.1,0-1,0.4-1,0.4l-1.3-0.3l-0.6-0.9l-0.4-1c0,0-0.6-0.9-1.1-0.7c-0.5,0.2-0.9,0.5-0.9,0.5l-0.4,0.9v1l-0.5,0.4h-2
	l-1.5-0.4l-0.4-0.4l-0.5-0.8l-0.3-0.5c0,0-0.9,0.4-1.5,0.6c-0.6,0.2-0.6,0.3-0.6,0.3c0,0-1.2,0.2-1.6,0.2c-0.4-0.1-0.5-0.2-0.9-0.3
	c-0.5-0.1-1.2-0.1-1.6-0.2c-0.4,0-0.6,0.2-0.6,0.2l-1,0.3l-0.1-0.9l1.1-1l0.4-1l0-2.2l-0.8-2l-1.8-1.6l-1.3-1.3l-0.4-1.1l-0.9-0.7
	c0,0-1.5,0.1-1.7,0.2c-0.2,0-2,0.4-2,0.4l-2.4-0.5l-1-1l-1-1.2l-1-1.8l-0.9-1.6l-0.4-1.8l-1.8-1l-1.9-1.6l-1.9-0.4l-1.3,0.2
	l-1.5,0.3l-1.8-0.5l-1.4-0.3l-2.8,0.6l-1.8,0.5l-2.5,0.6l-1.3-0.5h-2.4l-2-0.7l-1.7-0.8l-0.8-0.7l-1.2-1.2l-0.9-0.8l-1-0.7l0.4-1.2
	l0-2l-0.4-1.4l-0.7-1.5l-0.7-1.5l-0.5-2.2v-1.4l1.3-0.8l1.2-0.7l0.5-0.8l0.6-1.1l2-1l0.9-0.1l0.6-0.9l1.2-0.7l0.6-0.6l1.8-0.4l0.3-1
	l0.6,0.1l1,1.1l0.2,0.7l0.8,1.3l0.6,0.6l0.9,0.6l1.5,0.4l2.5-0.6l1.3-0.7l1.1-0.4l1.5-0.2l1.4-0.7l0.8-1.5l0.6-1.7l0.8-0.1l1.3-0.4
	l1.2-0.7v-6.2l0.8-1.3l0.9-1.1v-2.1l0.7-1.4l0.8-1.4l1-1.6l1.3-2.2l0.2-1.2l0.4-0.3l0.6,0.7l0.9-0.1v-1.7l0.6-0.2l1,0.4l0.7-0.4
	l0.6-1.2l1.7,0.3c0,0,1.8,0.1,2,0.1s0.9,0.2,0.9,0.2l0.7,0.5l0.8-0.2l0.3-0.6l1.1-1.6l0.8-0.7l1.2-0.2h1.2l1.4-0.7l0.7-1.4l0.8-1.1
	c0,0,1,0.1,1.6,0.3c0.6,0.1,1.3,0.8,1.3,0.8l1,0.1l0.7-0.7l0.8-0.7l1.3-0.5l1.5-0.2l1.2-0.9l1.3-1.3l0.9-0.7l0.4-1.5l1.1-1.3
	l0.5-1.7l0.5-0.9l1-0.5l0.3-0.6v-1.1l0.6-1.3l0.4-0.6l0.5,0.2l0.5,0.5l0.5,0.4l0.7,0.8l0.5,0.8l0.8,1.4l0.3,1.3l0.6,1.8l0.1,0.5
	l-0.5,0.8l-0.7,0H180l-0.9,0.8l0,1.3l0.3,1.3l1.1,0.5l0.3,0.6l0.3,1l-0.1,1.3l0.4,1.3c0,0,0.3,0.8,0.3,0.8c0,0.1,0.1,0.9,0.1,0.9
	s0.3,0.6,0.4,0.8c0.1,0.2,0.3,0.3,0.3,0.3l1.2-0.5l1.3-0.1l1.8,0l1.1,0.2c0,0,0.4,0.1,0.6,0.3c0.2,0.2,0.4,0.5,0.3,0.8
	c-0.1,0.2,0.2,0.6,0.5,0.8c0.2,0.2,0.6,0.4,0.6,0.4l1.2,0.7c0,0,0.9,0.8,1.1,0.9c0.2,0.2,1.1,0.2,1.1,0.2l1.3-0.1l1-0.5l0.6-0.6
	l1-1.1l1-0.1l1.1,0.2l0.9,0l0.2-0.6l1.1-0.5l1.4,0.7l1.5-0.1l0.9-0.1l1.6,0.3l1.2-0.1l0.7-0.4l0.6-0.6c0,0,0.4,0.4,0.5,0.5
	c0.1,0.1,1,0.8,1,0.8L211.9,164.9z"/>
</svg>
