<?xml version="1.0" standalone="no"?>
<!DOCTYPE svg PUBLIC "-//W3C//DTD SVG 1.1//EN" "http://www.w3.org/Graphics/SVG/1.1/DTD/svg11.dtd" >
<svg xmlns="http://www.w3.org/2000/svg">
<metadata>
Created by FontForge 20120731 at Fri Jun 23 09:43:26 2017
 By admin
</metadata>
<defs>
<font id="iconfont" horiz-adv-x="1024" >
  <font-face 
    font-family="iconfont"
    font-weight="500"
    font-stretch="normal"
    units-per-em="1024"
    panose-1="2 0 6 3 0 0 0 0 0 0"
    ascent="896"
    descent="-128"
    x-height="792"
    bbox="-0.847826 -207 14001 896"
    underline-thickness="0"
    underline-position="0"
    unicode-range="U+0078-E8F8"
  />
<missing-glyph 
 />
    <glyph glyph-name=".notdef" 
 />
    <glyph glyph-name=".notdef" 
 />
    <glyph glyph-name=".null" horiz-adv-x="0" 
 />
    <glyph glyph-name="nonmarkingreturn" horiz-adv-x="341" 
 />
    <glyph glyph-name="x" unicode="x" horiz-adv-x="1001" 
d="M281 543q-27 -1 -53 -1h-83q-18 0 -36.5 -6t-32.5 -18.5t-23 -32t-9 -45.5v-76h912v41q0 16 -0.5 30t-0.5 18q0 13 -5 29t-17 29.5t-31.5 22.5t-49.5 9h-133v-97h-438v97zM955 310v-52q0 -23 0.5 -52t0.5 -58t-10.5 -47.5t-26 -30t-33 -16t-31.5 -4.5q-14 -1 -29.5 -0.5
t-29.5 0.5h-32l-45 128h-439l-44 -128h-29h-34q-20 0 -45 1q-25 0 -41 9.5t-25.5 23t-13.5 29.5t-4 30v167h911zM163 247q-12 0 -21 -8.5t-9 -21.5t9 -21.5t21 -8.5q13 0 22 8.5t9 21.5t-9 21.5t-22 8.5zM316 123q-8 -26 -14 -48q-5 -19 -10.5 -37t-7.5 -25t-3 -15t1 -14.5
t9.5 -10.5t21.5 -4h37h67h81h80h64h36q23 0 34 12t2 38q-5 13 -9.5 30.5t-9.5 34.5q-5 19 -11 39h-368zM336 498v228q0 11 2.5 23t10 21.5t20.5 15.5t34 6h188q31 0 51.5 -14.5t20.5 -52.5v-227h-327z" />
    <glyph glyph-name="xiazai" unicode="&#xe624;" horiz-adv-x="1000" 
d="M438 800v-250h-102l164 -189l166 189h-104v250h-124v0zM62 729q-25 0 -43.5 -21t-18.5 -51v-643q0 -29 18.5 -50t43.5 -21h875q26 0 44.5 21t18.5 50v643q0 30 -18.5 51t-44.5 21h-312v-108h281q13 0 22 -10t9 -25v-500q0 -15 -9 -25.5t-22 -10.5h-812q-13 0 -22.5 10.5
t-9.5 25.5v500q0 15 9.5 25t22.5 10h281v108h-313v0zM344 -200h312l-31 71q-3 9 -14 22.5t-22 13.5h-179q-11 0 -21 -13t-14 -23zM344 -200z" />
    <glyph glyph-name="guanbi" unicode="&#xe63f;" 
d="M286 28l-45 45q-10 9 -10 22.5t10 22.5l181 181l-181 182q-10 9 -10 22.5t10 22.5l45 45q9 10 22.5 10t22.5 -10l182 -181l181 181q9 10 22.5 10t22.5 -10l45 -45q10 -9 10 -22.5t-10 -22.5l-181 -182l181 -181q10 -9 10 -22.5t-10 -22.5l-45 -45q-9 -10 -22.5 -10
t-22.5 10l-181 181l-182 -181q-9 -10 -22.5 -10t-22.5 10z" />
    <glyph glyph-name="fangda" unicode="&#xe626;" 
d="M905 -10q28 -32 30.5 -56t-18.5 -47q-24 -27 -53 -25.5t-56 23.5l-161 155q-45 -30 -97.5 -46.5t-110.5 -16.5q-79 0 -148 30t-120.5 81.5t-81 120.5t-29.5 148q0 78 29.5 147t81 120.5t120.5 81.5t148 30t148 -30t120.5 -81.5t81.5 -120.5t30 -147q0 -60 -17.5 -114
t-48.5 -99q13 -14 36.5 -37.5t47 -47.5t43.5 -43zM439 111q52 0 98 19.5t80 53.5t53.5 80t19.5 98t-19.5 98t-53.5 80t-80 53.5t-98 19.5t-97.5 -19.5t-79.5 -53.5t-54 -80t-20 -98t20 -98t54 -80t79.5 -53.5t97.5 -19.5zM500 425h125v-125h-125v-125h-126v125h-124v125h124
v125h126v-125z" />
    <glyph glyph-name="shanchu" unicode="&#xe627;" 
d="M698 534h-112v41h-150v-41h-113v-41h375v41zM699 461h-413v-61h38v-406h375v406h38v61h-38v0zM432 53h-51v348h51v-348zM537 53h-51v348h51v-348zM643 53h-50v348h50v-348z" />
    <glyph glyph-name="tubiao1" unicode="&#xe629;" 
d="M865 663h-191v38q0 31 -22.5 53.5t-54.5 22.5h-190q-32 0 -54.5 -22.5t-22.5 -53.5v-38h-191v-39h40l38 -725q0 -31 22.5 -53.5t53.5 -22.5h420q32 0 54 22.5t22 53.5l38 725h38v39zM368 701q0 16 11.5 27t27.5 11h190q16 0 27.5 -11t11.5 -27v-38h-268v38zM751 -99v-1
v-1q0 -16 -11 -27t-27 -11h-420q-16 0 -27 11t-11 27v1v1l-38 723h572zM483 548h38v-611h-38v611zM407 -61l-39 609l-38 -2l39 -610zM674 547l-38 2l-39 -610l38 -3z" />
    <glyph glyph-name="rili" unicode="&#xe610;" 
d="M483 362zM290 572q19 0 31.5 13t12.5 33v43v0v0v43q0 19 -12 32q-20 21 -48 10.5t-28 -40.5v-45v-42q0 -20 12.5 -33.5t31.5 -13.5zM737.5 571q18.5 0 31 13.5t12.5 32.5v43v0v0v43q0 20 -11 32q-21 22 -49 11t-28 -41v-45v-42q0 -20 13 -33.5t31.5 -13.5zM544 243h118
v-87h-118v87zM723 362h117v-87h-117v87zM723 243h117v-87h-117v87zM365 124h118v-88h-118v88zM544 124h117v-87h-117v87zM723 124h117v-87h-117v87zM186 124h118v-88h-118v88zM187 243h117v-88h-117v88zM544 362h117v-87h-117v87zM365 243h118v-87h-118v87zM365 362h118v-87
h-118v87zM942 661h-110v-15q-1 -40 -26 -68t-63 -31h-7t-8 1q-37 3 -62 31.5t-25 67.5v7.5v6.5h-258v-15q0 -42 -27.5 -70.5t-67.5 -28.5t-68 29t-28 71v8v6h-110q-8 0 -13 -5t-5 -12v-739q0 -7 5 -12t13 -5h860q8 0 13 5t5 12v739q0 7 -5 12t-13 5zM907 -54h-787v24v28v430
h787v-430v0v-52z" />
    <glyph glyph-name="zhuzhaiqu" unicode="&#xe60d;" 
d="M180 356v-346h247l-1 162q0 4 0.5 9t7 13.5t19.5 8.5h95q16 0 24.5 -7.5t8.5 -15.5v-8v-161h246v345l-321 280zM489 356h-62v63h62v-63zM489 449h-62v61h62v-61zM519 510h62v-61h-62v61zM519 419h62v-63h-62v63zM510 759l-454 -402h91l360 311l353 -311h107zM827 726h-92
v-108l92 -75v183z" />
    <glyph glyph-name="tubiao" unicode="&#xe60b;" 
d="M850 631h27v-680h-729v27l701 2zM485 602q0 12 8 20.5t20 8.5h84q11 0 19.5 -8.5t8.5 -20.5v-566h-140v566zM653 433q0 11 8 19.5t20 8.5h84q12 0 20 -8.5t8 -19.5v-397h-140v397zM316 263q0 11 8.5 19.5t19.5 8.5h84q12 0 20 -8.5t8 -19.5v-227h-140v227zM176 121h84
q12 0 20 -8.5t8 -19.5v-57h-140v57q0 11 8 19.5t20 8.5z" />
    <glyph glyph-name="xingqudian" unicode="&#xe607;" 
d="M391 668v-239q4 -2 6 2q40 114 0 234q-4 10 -6 3zM520 830q-102 0 -188.5 -50t-137 -136.5t-50.5 -188.5q0 -101 50 -188h-3q2 -1 6 -4q65 -109 182 -157q88 -93 141 -191q0 -1 5 7.5t14.5 26.5t22 39.5t32 51t39.5 56.5q116 37 189.5 135.5t73.5 223.5
q0 102 -50.5 188.5t-137 136.5t-188.5 50zM576 455v17q-28 5 -89 -17t-89 -37l-7 -7v-191h-35v452q0 7 5.5 12t12.5 5q5 0 4 0h1v0q17 2 66 -2.5t91.5 -10.5t39.5 -6q14 -27 16 -36v-3q0 -1 2 -1q5 -1 9 -2q20 -7 34.5 -10.5t38.5 -7.5t50 -2t53 9l-25 -40
q-76 -109 -178 -122z" />
    <glyph glyph-name="yuejuanzhixian" unicode="&#xe655;" 
d="M185 290h277h36h59h21h291q12 0 20.5 7.5t8.5 18.5t-8.5 19t-20.5 8h-291h-21h-59h-36h-277q-12 0 -20.5 -8t-8.5 -19t8.5 -18.5t20.5 -7.5z" />
    <glyph glyph-name="tianjia" unicode="&#xe625;" 
d="M881 812h-436q-54 0 -92.5 -38.5t-38.5 -92.5v-436q0 -54 38.5 -92.5t92.5 -38.5h436q55 0 93 38.5t38 92.5v436q0 54 -38 92.5t-93 38.5zM925 245q0 -18 -12.5 -31t-31.5 -13h-436q-18 0 -30.5 13t-12.5 31v436q0 18 12.5 31t30.5 13h436q19 0 31.5 -13t12.5 -31v-436z
M794 419h-87v-87q0 -18 -13 -30.5t-31 -12.5t-30.5 12.5t-12.5 30.5v87h-88q-18 0 -30.5 13t-12.5 31t12.5 31t30.5 13h88v87q0 18 12.5 30.5t30.5 12.5t31 -12.5t13 -30.5v-87h87q18 0 31 -13t13 -31t-13 -31t-31 -13z" />
    <glyph glyph-name="shouqi" unicode="&#xe62c;" 
d="M538 405q-7 6 -15 3q-8 3 -14 -3l-181 -182q-10 -9 0 -18l27 -27q9 -9 18 0l150 150l151 -150q9 -9 18 0l28 27q9 9 0 18zM512 739q-91 0 -174 -35.5t-142.5 -95t-95 -142.5t-35.5 -174t35.5 -174t95 -142.5t142.5 -95t174 -35.5t174 35.5t142.5 95t95 142.5t35.5 174
t-35.5 174t-95 142.5t-142.5 95t-174 35.5zM512 -108q-109 0 -201 53.5t-145.5 145.5t-53.5 201t53.5 201t145.5 145.5t201 53.5t201 -53.5t145.5 -145.5t53.5 -201t-53.5 -201t-145.5 -145.5t-201 -53.5z" />
    <glyph glyph-name="chakan" unicode="&#xe612;" 
d="M924 -107l-33 -33q-10 -10 -24 -10t-23 10l-135 134q-50 -29 -110 -29q-88 0 -155 65t-69 155h-170v56h175q7 28 23 56h-198v57h242q0 -1 -0.5 -1.5l-0.5 -0.5q63 58 147 58q90 0 157.5 -67.5t67.5 -158.5q0 -62 -32 -114l134 -134q24 -24 4 -43zM592.5 342
q-62.5 0 -107 -44.5t-44.5 -107t48 -110.5t110.5 -48t107 44.5t44.5 107.5t-48 110.5t-110.5 47.5zM205 579h395v-56h-395v56zM600 453q-53 -15 -93 -43h-302v56h395v-13zM656 463v172h-507v-563h238q18 -63 60 -113h-298q-24 0 -40.5 16.5t-16.5 40.5v676q0 23 16.5 39.5
t40.5 16.5h507q23 0 39.5 -16.5t16.5 -39.5v-229q-2 1 -12 2t-16 1t-16 -1t-12 -2z" />
    <glyph glyph-name="msnui-zoom-out" unicode="&#xe6be;" 
d="M927 68q28 -33 31 -57.5t-19 -47.5q-24 -28 -54 -26.5t-57 24.5l-164 157q-46 -30 -99.5 -46.5t-112.5 -16.5q-81 0 -151.5 30.5t-123 83t-82.5 123t-30 150.5t30 150t82.5 122.5t123 83.5t151 31t151 -31t123 -83.5t83 -122.5t30.5 -150q0 -61 -18 -116t-49 -102l37 -38
q24 -23 48 -47.5t43 -44.5zM452 191q53 0 100 20t81.5 54.5t54.5 81.5t20 100t-20 100t-54.5 81.5t-81.5 54.5t-100 20t-99.5 -20t-81 -54.5t-55 -81.5t-20.5 -100t20.5 -100t55 -81.5t81 -54.5t99.5 -20zM258 511h383v-127h-383v127z" />
    <glyph glyph-name="gengduo" unicode="&#xe72c;" 
d="M192 301zM64 301q0 53 37.5 90t90.5 37t90.5 -37t37.5 -90t-37.5 -90.5t-90.5 -37.5t-90.5 37.5t-37.5 90.5zM512 301zM384 301q0 53 37.5 90t90 37t90 -37t37.5 -90t-37.5 -90.5t-90 -37.5t-90 37.5t-37.5 90.5zM831 300zM703 300q0 53 37.5 90.5t90.5 37.5t90.5 -37.5
t37.5 -90.5t-37.5 -90.5t-90.5 -37.5t-90.5 37.5t-37.5 90.5z" />
    <glyph glyph-name="bianji" unicode="&#xe77d;" 
d="M250 30l202 86l-124 122zM848 505l-127 131l-370 -365l133 -137zM953 662q-34 37 -73 66q-17 12 -34 12t-26 -6l-8 -6l-66 -66l134 -133q56 57 73 76q8 9 8 23t-4 24zM811 -38q0 -7 -5 -12t-12 -5h-622q-7 0 -12 5t-5 12v617q0 7 5 12t12 5h396l82 87h-563q-8 0 -14 -6
t-6 -14v-786q0 -8 6 -14t14 -6h792q8 0 14 6t6 14v562l-88 -82v-395z" />
    <glyph glyph-name="tianjia1" unicode="&#xe670;" 
d="M511.5 748q-91.5 0 -174.5 -35.5t-143 -95.5t-95.5 -143t-35.5 -174.5t35.5 -174.5t95.5 -143t143 -95.5t174.5 -35.5t174.5 35.5t143 95.5t95.5 143t35.5 174.5t-35.5 174.5t-95.5 143t-143 95.5t-174.5 35.5zM512 -84q-104 0 -192.5 51.5t-140 140t-51.5 192.5
t51.5 192.5t140 140t192.5 51.5t192.5 -51.5t140 -140t51.5 -192.5t-51.5 -192.5t-140 -140t-192.5 -51.5zM539 505q0 13 -9 22.5t-21 9.5t-21 -9.5t-9 -22.5v-133v-37q0 -4 -5 -4h-36h-131q-14 0 -23 -9t-9 -21t9 -20.5t23 -8.5h132h36q4 0 4 -5v-37v-135q0 -13 9 -22.5
t21 -9.5t21 9.5t9 22.5v138v35q0 4 3 4h36h139q13 0 22.5 8.5t9.5 20.5t-9.5 20.5t-22.5 8.5h-138h-36q-4 0 -4 6v38v131z" />
    <glyph glyph-name="user" unicode="&#xe645;" 
d="M750 168v1v0v0v-1zM417 398q0 -39 28 -67t67 -28t67 28t28 67t-28 67t-67 28t-67 -28t-28 -67zM512 688q-109 0 -201 -53.5t-145.5 -145.5t-53.5 -201t53.5 -201t145.5 -145.5t201 -53.5t201 53.5t145.5 145.5t53.5 201t-53.5 201t-145.5 145.5t-201 53.5zM725 82
q0 -9 -6.5 -15.5t-15.5 -6.5q-13 0 -19 10q-4 6 -4 13q0 70 -49 119.5t-119 49.5t-119 -49.5t-49 -119.5v0v0q0 -10 -6.5 -16.5t-16 -6.5t-16 6.5t-6.5 16.5v0v0q0 67 37.5 121t97.5 77q-29 19 -45.5 50t-16.5 67q0 58 41 99t99 41t99 -41t41 -99q0 -36 -16.5 -67t-45.5 -50
q60 -23 97.5 -77t37.5 -121v0v0v-1z" />
    <glyph glyph-name="delete" unicode="&#xe62b;" 
d="M897 553q9 0 15 6.5t6 15t-6 15t-15 6.5l-764 1q-9 0 -15 -6t-6 -15t6 -15.5t15 -6.5zM253 -80v-21h22l509 5h21v21v564q0 8 -6.5 14.5t-15 6.5t-15 -6.5t-6.5 -14.5v-564l21 22l-509 -5l22 -22v574q0 9 -6.5 15t-15 6t-15 -6t-6.5 -15v-574zM640 38q0 -9 6 -15.5
t15 -6.5t15.5 6.5t6.5 15.5v384q0 9 -6.5 15t-15.5 6t-15 -6t-6 -15v-384zM384 38q0 -9 6 -15.5t15 -6.5t15.5 6.5t6.5 15.5v384q0 9 -6.5 15t-15.5 6t-15 -6t-6 -15v-384zM512 38q0 -9 6 -15.5t15 -6.5t15.5 6.5t6.5 15.5v384q0 9 -6.5 15t-15.5 6t-15 -6t-6 -15v-384z
M425 628q0 9 6.5 15.5t15.5 6.5h166q9 0 15 -6.5t6 -15.5v-44h43v44q0 27 -19 45.5t-45 18.5h-166q-27 0 -45.5 -18.5t-18.5 -45.5v-39h42v39z" />
    <glyph glyph-name="dingzhi" unicode="&#xe7c8;" 
d="M119 -83l264 74l28 28l-187 186l-27 -28l-78 -260v0v0zM255 236l187 -186l364 364l-186 186l-365 -364v0v0zM890 609l-75 75q-32 33 -55.5 33t-55.5 -33l-53 -53l186 -186l53 53q32 32 32 55.5t-32 55.5v0v0v0zM380 679q-32 32 -55.5 32t-55.5 -32l-177 -177l-31 31
l186 186q32 32 77.5 32t77.5 -32l103 -102l-31 -31l-94 93v0v0v0zM169 486l62 62l31 -31l-62 -62l-3 4l34 -35l94 93l31 -31l-94 -93l10 -9l-31 -31l-149 149l31 31l46 -47v0v0zM604 52l93 -94l47 -46l146 146q32 32 32 55.5t-32 55.5l-98 98l31 31l107 -107
q32 -32 32 -77.5t-32 -77.5l-155 -155l-31 -31l-31 31l-154 154l31 31l14 -14v0v0v0zM728 114l-93 -93l-31 31l93 93l31 -31v0v0zM744 67l31 -31l-78 -78l-31 31l78 78v0v0zM744 67z" />
    <glyph glyph-name="close" unicode="&#xe613;" 
d="M512.5 851q-97.5 0 -186 -38t-152.5 -102t-101.5 -152.5t-37.5 -185.5t37.5 -185.5t101.5 -152.5t152.5 -102t186 -38t186 38t152.5 102t102 152.5t38 185.5t-38 185.5t-102 152.5t-152.5 102t-186 38zM512.5 -73q-90.5 0 -173 35t-142.5 95t-95 142.5t-35 173.5
t35 173.5t95 142t142.5 95t173 35.5t173.5 -35.5t142.5 -95t95 -142t35.5 -173.5t-35.5 -173.5t-95 -142.5t-142.5 -95t-173.5 -35zM696 578l-183 -183l-184 183l-21 -22l183 -183l-183 -183l21 -22l184 183l183 -183l22 22l-183 183l183 183z" />
    <glyph glyph-name="download" unicode="&#xe62f;" 
d="M843 63v0h-659q-10 0 -17.5 -7.5t-7.5 -18t7.5 -18t17.5 -7.5h659v0q11 0 18.5 7.5t7.5 18t-7.5 18t-18.5 7.5zM494 118q8 -8 19 -8v0v0q11 0 19 8l318 318q8 8 8 19t-8 18.5t-18.5 7.5t-18.5 -8l-274 -273v495v0q0 11 -7.5 18.5t-18.5 7.5t-18.5 -7.5t-7.5 -18.5v0v-495
l-274 273q-7 8 -18 8t-18.5 -7.5t-8 -18.5t7.5 -19l318 -318v0z" />
    <glyph glyph-name="8" unicode="&#xe676;" horiz-adv-x="1028" 
d="M515 812q-104 0 -199 -40.5t-163.5 -108.5t-109 -162.5t-40.5 -198t40.5 -198t109 -162.5t163.5 -108.5t199 -40.5t199 40.5t163.5 108.5t109 162.5t40.5 198t-40.5 198t-109 162.5t-163.5 108.5t-199 40.5zM515 -140q-90 0 -172 35t-141.5 94t-94.5 141t-35 172t35 172
t94.5 141.5t141.5 94.5t172 35t172 -35t141 -94.5t94 -141.5t35 -172t-35 -172t-94 -141t-141 -94t-172 -35zM313 305zM248 305q0 27 19 46t46 19t45.5 -19t18.5 -46t-18.5 -45.5t-45.5 -18.5t-46 18.5t-19 45.5zM529 305zM464 305q0 27 19 46t46 19t45.5 -19t18.5 -46
t-18.5 -45.5t-45.5 -18.5t-46 18.5t-19 45.5zM724 305zM659 305q0 27 19 46t46 19t45.5 -19t18.5 -46t-18.5 -45.5t-45.5 -18.5t-46 18.5t-19 45.5z" />
    <glyph glyph-name="iconmingchengpaixu65" unicode="&#xe7b0;" 
d="M661 522q7 13 0 27q-9 14 -40 14h-3h-339h-13q-21 0 -32.5 -8.5t-11.5 -19.5q0 -15 16 -23q19 -10 28 -10h355q28 0 40 20zM222 410q0 -17 16 -25q12 -6 28 -6h272l5 6q18 20 26 26l35 29h-338q-21 0 -32.5 -9t-11.5 -21zM812 435q20 -9 27 -14l25 -15v276q0 34 -23 50
t-49 16v0h-645v0q-28 0 -55.5 -16.5t-27.5 -49.5v-729q0 -33 27.5 -50t55.5 -17v0h645v0q35 0 53.5 21.5t18.5 45.5v65l-36 33l-26 -12v-87q0 -2 -2 -4q-1 -1 -1.5 -1t-2.5 0.5t-4 0.5h-645q-1 0 -5 -0.5t-7 -1t-6 1t-3 5.5v729q0 4 21 4h645q1 0 4.5 1.5t4.5 0.5t1 -6v-242
zM952 58l-109 106q26 41 26 90q0 71 -51.5 120.5t-124 49.5t-124 -49.5t-51.5 -120.5t51.5 -120.5t123.5 -49.5q63 0 111 38l107 -105q10 -10 21 0l20 21q11 10 0 20v0zM566 253q0 51 37.5 87.5t90.5 36.5t90.5 -36.5t37.5 -87.5t-37.5 -87.5t-90.5 -36.5t-90.5 36.5
t-37.5 87.5v0zM811 25z" />
    <glyph glyph-name="guanbi1" unicode="&#xe640;" 
d="M633 288l256 256q25 25 25 60.5t-25 60.5t-60.5 25t-60.5 -25l-256 -256l-256 256q-25 25 -60.5 25t-60.5 -25t-25 -60.5t25 -60.5l256 -256l-256 -256q-25 -25 -25 -60.5t25 -60.5t60.5 -25t60.5 25l256 256l256 -256q25 -25 60.5 -25t60.5 25t25 60.5t-25 60.5z" />
    <glyph glyph-name="jiaotong" unicode="&#xe619;" 
d="M894 -7l-22 615q0 41 -31 70t-75 29h-511q-44 0 -75 -29t-31 -70l-21 -615h73q-1 -5 -1 -9v-20q0 -19 14 -32.5t33 -13.5h66q19 0 32.5 13.5t13.5 32.5v20q0 4 -1 9h305q-1 -5 -1 -9v-20q0 -19 13.5 -32.5t32.5 -13.5h67q19 0 32.5 13.5t13.5 32.5v20q0 4 -1 9h74z
M259 89q-24 0 -41.5 17t-17.5 41.5t17.5 41.5t41.5 17t41 -17t17 -41.5t-17 -41.5t-41 -17zM217 301l8 253q0 41 17 59t55 18h427q38 0 54.5 -18t16.5 -59l9 -253h-587zM762.5 89q-24.5 0 -41.5 17t-17 41.5t17 41.5t41.5 17t41.5 -17t17 -41.5t-17 -41.5t-41.5 -17z" />
    <glyph glyph-name="qiehuan" unicode="&#xe62a;" 
d="M619 747v-214h-555v-85h896zM405 21v214h555v85h-896z" />
    <glyph glyph-name="hert" unicode="&#xe622;" 
d="M729 687q-67 0 -123.5 -39t-82.5 -101q-33 59 -96.5 99.5t-134.5 40.5q-26 0 -50 -6q-82 -20 -132 -92t-45 -163q6 -111 80 -200l319 -317q20 -20 48.5 -20t48.5 20l315 315q43 39 63 102.5t20 126.5q0 97 -67.5 165.5t-162.5 68.5zM841 261l-316 -316q-5 -5 -12.5 -5
t-12.5 5l-317 315q-62 74 -67 169q-4 72 35 129.5t103 72.5q18 4 36 4q51 0 106 -34t90 -81.5t35 -84.5v0v0v0q0 42 28.5 89t77 79.5t97.5 32.5q73 0 128.5 -54.5t55.5 -128.5q0 -52 -16.5 -106t-50.5 -86z" />
    <glyph glyph-name="bianji1" unicode="&#xe608;" 
d="M779 -74q15 0 25 -10.5t10 -25.5t-10 -26t-25 -11h-615q-15 0 -25 11t-10 26t10 25.5t25 10.5h615zM162 -24l84 234l136 -143zM410 94l-137 144l373 389l138 -144zM809 513l-137 144l68 72q18 18 42 18t41 -18l55 -58q17 -18 17 -43t-17 -43z" />
    <glyph glyph-name="tianjia2" unicode="&#xe776;" 
d="M863 249h-302v-302h-100v302h-302v101h302v302h100v-302h302v-101z" />
    <glyph glyph-name="quanwangfenqi" unicode="&#xe614;" 
d="M497 749h30q82 -4 151 -32q76 -29 137 -85t97 -128q47 -91 49 -196v-16q-2 -104 -47 -193q-45 -90 -124 -152q-81 -64 -182 -86q-33 -7 -81 -10h-30q-59 3 -106 16q-129 36 -217 137q-61 70 -89 158q-21 61 -22 130v16q2 127 70 233q72 114 195 169q78 35 169 39v0z
M411 653q-35 -44 -62 -121q12 -3 65 -10q50 -6 80 -6v98v98q-44 -10 -83 -59v0zM530 516q56 1 109 10q18 2 36 6q-32 92 -78 139q-31 33 -67 41v-98.5v-97.5v0zM376 690q-98 -34 -167 -109q47 -25 105 -40q34 102 89 157q-8 -1 -27 -8v0zM621 699q4 -4 24 -28
q39 -53 65 -130q57 14 105 40q-81 87 -194 118v0zM185 553q-81 -105 -86 -235h180q2 98 25 188q-66 17 -119 47v0zM720 506q23 -90 25 -188h57h66.5h56.5q-6 131 -86 235q-52 -29 -119 -47v0zM315 318h89.5h89.5v162q-82 2 -155 18q-22 -85 -24 -180v0zM530 480v-162h89.5
h89.5q-2 96 -24 180q-73 -16 -155 -18v0zM99 282q5 -130 86 -235q52 29 119 47q-23 90 -25 188h-180v0zM315 282q2 -96 24 -180q72 16 155 18v162h-89.5h-89.5v0zM530 282v-162q81 -2 155 -18q23 88 24 180h-89.5h-89.5v0zM745 282q-1 -97 -25 -188q66 -18 119 -47
q80 104 86 235h-90h-90v0zM349 68q32 -92 78 -139q31 -33 67 -41v98v98q-77 -2 -145 -16v0zM530 84v-98v-98q44 10 83 58q35 45 62 122q-15 3 -66 11q-52 5 -79 5v0zM209 19q81 -88 194 -118q-55 56 -89 158q-55 -14 -105 -40v0zM710 59q-34 -102 -89 -158q113 31 194 118
q-46 25 -105 40v0zM710 59z" />
    <glyph glyph-name="guanbi2" unicode="&#xe641;" 
d="M512 748q91 0 172.5 -34.5t143.5 -96.5v0v0q62 -62 96.5 -143.5t34.5 -172.5t-34.5 -172.5t-96.5 -143.5l-3 -3q-61 -60 -142 -94t-171 -34q-91 0 -172.5 34.5t-143.5 96.5v0v0q-62 62 -96.5 143.5t-34.5 172.5t34.5 172.5t96.5 143.5l2 3q62 60 143 94t171 34v0z
M629 489v0l-117 -118l-118 118q-14 14 -34.5 14t-34.5 -14q-15 -15 -15 -35.5t15 -35.5l117 -117l-117 -117q-15 -15 -15 -35.5t15 -35.5q14 -14 34.5 -14t34.5 14l118 118l117 -118q15 -14 35.5 -14t35 14.5t14.5 35t-14 35.5l-118 117l118 117q14 15 14 35.5t-14 35.5
q-15 14 -35.5 14t-35.5 -14v0zM758 547v0q-48 48 -111.5 75t-134.5 27q-143 0 -244 -100l-2 -2q-48 -48 -74.5 -111.5t-26.5 -134.5t26.5 -134.5t74.5 -111.5v0q48 -48 111.5 -75t134.5 -27q70 0 133 26.5t110 73.5l2 2q49 48 75.5 111.5t26.5 134.5t-26.5 134.5
t-75.5 111.5h1v0z" />
    <glyph glyph-name="4g" unicode="&#xe635;" horiz-adv-x="1028" 
d="M304 550l-289 -401q-27 -37 -8 -67t70 -23l171 25q-27 -99 -35 -132q-2 -4 2 -9t12 -4l34 5q30 4 42.5 15t17.5 34l28 105q31 5 44 17.5t20 38.5l9 36q1 4 -0.5 7.5t-4.5 3.5l-42 -6q32 122 42 159q6 25 -9 34.5t-39 5.5l-41 -5l-55 -208l-99 -15q-8 0 -10 6.5t5 15.5
l217 302q21 29 9 51.5t-49 16.5zM917 391q-4 66 -49.5 113t-110.5 53q-15 1 -23.5 -4.5t-10.5 -11.5q-6 -23 -9 -33q-1 -4 2.5 -6.5t5.5 -1.5q11 2 18 2q50 0 85.5 -35.5t35.5 -85.5q0 -10 -1 -15q0 -2 2 -4.5t6 -1.5q9 2 29 4q8 0 14.5 6.5t5.5 20.5zM752 646l-10 -36
q0 -9 11 -10q84 -4 145.5 -65t62.5 -153q0 -4 2.5 -6t5.5 -2h2q26 4 34 4q23 3 18 45q-14 92 -80 158.5t-158 80.5q-13 1 -22 -3.5t-11 -12.5zM773 251q26 4 43 -1.5t23.5 -15.5t7 -26t-2.5 -29.5t-8 -28.5q-51 -151 -222 -152q-51 0 -91 23t-60 61.5t-17 91t33 106.5
q22 40 62 73.5t74.5 50t64.5 24.5q37 10 54 10q31 2 51 -19q13 -14 17.5 -34.5t-2.5 -35.5h-4q-139 -4 -216 -85q-25 -26 -33.5 -58t2.5 -69q8 -24 32.5 -39.5t54 -17.5t62 17t52.5 58l-133 -19l16 56q9 38 36 43z" />
    <glyph glyph-name="zhongqingdianxinicon14" unicode="&#xe62e;" 
d="M512 -146q91 0 173.5 35.5t142 95t95 142t35.5 173.5t-35.5 173.5t-95 142t-142 95t-173.5 35.5t-173.5 -35.5t-142 -95t-95 -142t-35.5 -173.5t35.5 -173.5t95 -142t142 -95t173.5 -35.5v0v0zM512 690q106 0 196 -52t142 -142t52 -196t-52 -196t-142 -142t-196 -52
t-196 52t-142 142t-52 196t52 196t142 142t196 52v0v0zM512 594q72 0 123 -50.5t51 -122t-51 -122t-123 -50.5t-123 50.5t-51 122t51 122t123 50.5v0v0zM512 298q52 0 88 36t36 87t-36 87.5t-88 36.5t-88 -36.5t-36 -87.5t36 -87t88 -36v0v0zM512 298q103 0 176 -72.5
t73 -174.5h-50q0 82 -58.5 140t-140.5 58t-140.5 -58t-58.5 -140h-50q0 102 73 174.5t176 72.5v0v0zM512 298z" />
    <glyph glyph-name="dingwei1" unicode="&#xe618;" 
d="M512.5 355q-47.5 0 -81.5 34t-34 82t34 82.5t81.5 34.5t81.5 -34.5t34 -82.5t-34 -82t-81.5 -34zM512.5 556q-34.5 0 -59 -25t-24.5 -60t24.5 -59.5t59 -24.5t59 24.5t24.5 59.5t-24.5 60t-59 25zM512 -53l-12 15q-13 15 -31.5 38.5t-62 86t-76.5 120.5t-59.5 129.5
t-26.5 125.5q0 116 78.5 198.5t190.5 82.5q110 0 189 -82.5t79 -198.5q1 -54 -26 -125.5t-60 -129.5t-76.5 -120t-62.5 -86t-32 -39zM513 711q-99 0 -168.5 -73t-69.5 -176q0 -55 28.5 -127.5t73.5 -143.5t75.5 -114.5t59.5 -79.5q29 36 60 79.5t76 114.5t73.5 143.5
t28.5 127.5q-1 103 -70.5 176t-166.5 73zM705 157v-31h63l64 -237h-634l63 237h48v31h-79l-79 -300h728l-79 300h-95z" />
    <glyph glyph-name="xiala" unicode="&#xe6dc;" 
d="M512 747q-91 0 -173.5 -35.5t-142.5 -95.5t-95.5 -142.5t-35.5 -173.5t35.5 -173.5t95.5 -142.5t142.5 -95.5t173.5 -35.5t174 35.5t142.5 95.5t95 142.5t35.5 173.5t-35.5 173.5t-95 142.5t-142.5 95.5t-174 35.5zM512 -84q-104 0 -192.5 51.5t-140 140t-51.5 192.5
t51.5 192.5t140 140t192.5 51.5t192.5 -51.5t140 -140t51.5 -192.5t-51.5 -192.5t-140 -140t-192.5 -51.5zM721 380l-49 49l-160 -160l-160 160l-49 -49l209 -209z" />
    <glyph glyph-name="kehu" unicode="&#xe615;" 
d="M200 -100q-10 0 -17 7.5t-7 18.5v68q0 102 54 186t145 123l13 5l-11 10q-34 28 -53 68.5t-19 85.5q0 81 54.5 138.5t131.5 57.5t131.5 -57.5t54.5 -138.5q0 -45 -18.5 -85.5t-52.5 -68.5l-12 -10l14 -5q90 -39 144 -123t54 -186v-68q0 -11 -7 -18.5t-17 -7.5h-582v0z
M491 299q-55 0 -107.5 -22t-93 -60.5t-65 -97t-23.5 -125.5v-66h578v66q-1 89 -42.5 160t-106.5 108t-140 37v0zM491 644q-67 0 -115 -50.5t-48 -121.5t48 -121.5t115 -50.5t115 50.5t48 121.5t-48 121.5t-115 50.5v0zM71 3q-10 0 -17 7.5t-7 17.5v53q0 74 36 137t98 97
l10 6l-7 8q-40 47 -40 109q0 64 42.5 111t102.5 50q-9 -15 -14 -35q-50 -7 -77.5 -43t-27.5 -85q0 -44 12.5 -65t40.5 -37q9 -8 10 -18q0 -10 -7 -13l-11 -4q-65 -17 -103.5 -79t-38.5 -139v-48l52 1q-3 -17 -5 -31h-49v0zM862 3q-2 19 -5 27h52v51q-2 81 -40 143t-105 78
l-6 2q-6 3 -6 12q0 7 2.5 9.5t12.5 6.5q25 28 35 50.5t10 55.5q-8 63 -30.5 88t-71.5 39q-2 5 -2.5 7t-1.5 5.5t-1.5 4t-2 3t-2 3.5t-3.5 5t-5 6q61 -3 103.5 -50t42.5 -111q0 -62 -40 -109l-7 -8l10 -6q62 -34 98 -97t36 -137v-53q0 -10 -7 -17.5t-17 -7.5h-49v0zM862 3z
" />
    <glyph glyph-name="g1" unicode="&#xe679;" 
d="M62 270q-3 72 34 137.5t100.5 105.5t135.5 41q110 10 204 -70q-40 -44 -73 -75q-96 58 -168 33q-70 -20 -106 -90.5t-10 -138.5q14 -47 54 -79.5t87.5 -39.5t96.5 11q34 12 57.5 41.5t34.5 67.5h-163v97h272q11 -144 -57 -228q-35 -44 -88 -69.5t-108.5 -27t-110.5 14.5
q-85 28 -139.5 104t-52.5 165zM960 306h-90v90h-76v-90h-84v-76h84v-84h76v84h90v76z" />
    <glyph glyph-name="shangquan" unicode="&#xe88c;" 
d="M512.5 503q40.5 0 69 29t28.5 69.5t-28.5 69t-69 28.5t-69.5 -28.5t-29 -69t29 -69.5t69.5 -29zM512 654q22 0 37.5 -15.5t15.5 -37.5t-15.5 -37.5t-37.5 -15.5t-37.5 15.5t-15.5 37.5t15.5 37.5t37.5 15.5zM298 481l184 -277q11 -16 30 -16q18 0 29 16l185 277
q15 24 22 45l2 5q11 34 11 70q0 97 -73 166t-176 69t-176 -69t-73 -166q0 -36 12 -71q8 -25 23 -49zM512 790q84 0 144 -55.5t60 -133.5q0 -29 -10 -57q-6 -20 -18 -38l-176 -264l-176 264q-11 18 -19 39q-9 27 -9 56q0 78 60 133.5t144 55.5zM338 352q-37 -47 -37 -105
q0 -78 62 -132.5t149 -54.5t149 54.5t62 132.5q0 58 -37 105l-35 -28q27 -35 27 -77q0 -59 -48.5 -100t-117.5 -41t-117.5 41t-48.5 100q0 42 27 77zM765 470l-30 -34q91 -79 91 -189q0 -112 -92 -190.5t-222 -78.5t-222 78.5t-92 190.5q0 116 100 196l-29 35
q-55 -44 -85.5 -105t-30.5 -126q0 -86 48 -158t131 -114.5t180 -42.5t180 42.5t131 114.5t48 158q0 63 -27.5 120.5t-78.5 102.5z" />
    <glyph glyph-name="iconfontwode" unicode="&#xe65d;" 
d="M512 835q75 0 141.5 -51.5t66.5 -101.5v-138q0 -51 -23.5 -114.5t-65.5 -97.5q-18 -14 -15 -36t23 -32l243 -115q23 -10 31 -21v-80q0 -6 -4.5 -10.5t-10.5 -4.5h-386h-386q-6 0 -10.5 4.5t-4.5 10.5v80q9 11 32 22l242 114q20 10 23 32t-15 36q-42 34 -65.5 97.5
t-23.5 114.5v138q0 50 66.5 101.5t141.5 51.5v0v0z" />
    <glyph glyph-name="dingwei2" unicode="&#xe634;" 
d="M910 724zM512 292q-68 0 -116 48t-48 115.5t48 116t116 48.5t116 -48.5t48 -116t-48 -115.5t-116 -48zM512 564q-45 0 -77 -32t-32 -76q0 -45 32 -77t77 -32t77 32t32 76.5t-32 76.5t-77 32zM823 696l-15 22l-1 1l-3 3q-3 4 -9.5 10.5l-9.5 9.5l-8 9q-2 2 -7.5 6.5
t-7.5 7.5q-3 1 -3 3q-9 7 -20 5.5t-18 -10.5q-10 -13 -3 -28q3 -6 8 -10q2 -2 4 -3q1 -1 4 -3.5t5 -4.5l13 -13q1 -1 2.5 -3t3.5 -3.5t4 -3.5q1 -1 3.5 -4t3.5 -5q73 -91 73 -205q0 -44 -27.5 -106t-66 -118t-87 -116t-83 -97.5t-61.5 -64.5q-47 48 -97.5 105.5t-106 130.5
t-91 144.5t-35.5 121.5q-1 89 42.5 164.5t118.5 119.5t164 44q5 0 15 -0.5t15 -0.5h5q25 -3 54 -11q2 -1 5 -2t5 -2t5 -2h2q11 -3 21 1.5t13 14.5q4 11 0 21t-15 14q-4 1 -11.5 3.5t-11.5 4.5q-23 8 -60 11q-4 0 -6 1h-9q-10 1 -27 1q-103 0 -191 -51t-139.5 -139
t-51.5 -192q0 -41 19 -92.5t46.5 -99t67.5 -102t72.5 -93.5t71.5 -81t54.5 -58t31.5 -31q1 -2 2 -2q7 -7 18 -7q6 0 12.5 3t44 41t92 101.5t106.5 134t88.5 149.5t36.5 137q1 120 -70 219z" />
    <glyph glyph-name="xiajiang" unicode="&#xe8ee;" 
d="M683 128l98 98l-209 209l-171 -170l-316 315l60 60l256 -256l171 171l269 -269l98 98v-256h-256z" />
    <glyph glyph-name="comiisfuxuan" unicode="&#xe658;" 
d="M848 832h-672q-46 0 -79 -33t-33 -79v-672q0 -46 33 -79t79 -33h672q46 0 79 33t33 79v672q0 46 -33 79t-79 33zM915 48q0 -27 -20 -47t-47 -20h-672q-27 0 -47 20t-20 47v672q0 27 20 47t47 20h672q27 0 47 -20t20 -47v-672z" />
    <glyph glyph-name="xingbie" unicode="&#xe616;" 
d="M324 368q85 11 141.5 76t56.5 151q0 96 -67 163t-162.5 67t-163 -67t-67.5 -163q0 -86 57 -151t141 -76v-111h-148v-64h148v-149h64v149h149v64h-149v111zM292 429v0v0q-69 0 -117.5 49t-48.5 117.5t48.5 117.5t117.5 49t118 -49t49 -117.5t-49 -117.5t-118 -49zM762 473
v233l61 -61l45 45l-138 138l-137 -138l45 -45l61 61v-233q-85 -12 -142 -77t-57 -151q0 -95 67.5 -162.5t163 -67.5t163 67.5t66.5 162.5q0 87 -56.5 151.5t-141.5 76.5zM730.5 79q-68.5 0 -117.5 48.5t-49 117.5t49 117.5t117.5 48.5t117.5 -48.5t49 -117.5t-49 -117.5
t-117.5 -48.5z" />
    <glyph glyph-name="up" unicode="&#xe611;" 
d="M683 640l98 -98l-209 -209l-171 170l-316 -315l60 -60l256 256l171 -171l269 269l98 -98v256h-256z" />
    <glyph glyph-name="xiala-copy" unicode="&#xe601;" 
d="M986 35l-384 376q-3 5 -10 11.5t-31 17t-52 10.5q-24 0 -46 -6.5t-32 -13.5l-10 -7l-387 -388q1 -5 2.5 -11.5t9 -21.5t17.5 -23t29.5 -6.5t43.5 19.5q13 9 83 59t133.5 95l63.5 45q4 2 12.5 4.5t33 7t48 4.5t53 -7t52.5 -23q37 -26 104.5 -75t116.5 -85l49 -36
q4 -2 10 -4t21.5 -3t28.5 2.5t25 18t16 40.5v0zM976 379l-383 377q-4 5 -10.5 11t-30.5 17t-52 11q-24 0 -46.5 -7t-31.5 -13l-10 -7l-387 -389q1 -4 2.5 -10.5t9 -21.5t17.5 -23t29.5 -6.5t43.5 19.5q13 9 83 59l133 95l63 45q5 2 13.5 4.5t33 6.5t47.5 4.5t53 -6.5t53 -24
q36 -25 103.5 -74t117.5 -85l49 -37l9 -3t22 -3.5t29 2.5t25 18.5t15 39.5z" />
    <glyph glyph-name="tousu" unicode="&#xe61a;" horiz-adv-x="1155" 
d="M867 446q-118 0 -202.5 -84t-84.5 -203t84.5 -203t203 -84t203 84t84.5 203t-84.5 203t-203.5 84v0zM867 -80q-98 0 -168 70t-70 169t70 169t168.5 70t168.5 -70t70 -169t-70 -169t-169 -70v0zM867 -80zM1066 896h-978q-36 0 -62 -26t-26 -62v-575q0 -37 26 -63t62 -26
h421v48h-401l307 287l162 -151l527 491q2 -8 2 -11v-384h49v384q0 36 -26 62t-63 26v0zM56 210q-8 11 -8 23v575q0 3 2 11l330 -307l-324 -302v0zM90 848h975l-488 -454l-487 454v0zM90 848zM760 189h54v-93l17 17l5 -24q-20 -20 -41 -35l-8 20q5 5 5 13v81h-32v21zM793 257
q21 -16 37 -34l-15 -16q-14 17 -37 35zM888 149q14 -5 26 -11v33h-42v-23q-2 -66 -27 -105l-16 17q21 32 22 88v93q60 2 108 17l11 -20q-44 -13 -98 -15v-31h102v-21h-38v-44q23 -13 42 -26l-12 -18q-13 9 -30 20v-61h-22v73q-19 10 -37 17z" />
    <glyph glyph-name="yiyuan" unicode="&#xe63d;" 
d="M260 244h224v-56h-224v56zM400 608v84h-56v-84h-56h-28v-56h28h56v-84h56v84h56h28v56h-28h-56zM260 384h224v-56h-224v56zM736 244h56v-56h-56v56zM850 524h-198v219q0 89 -84 89h-390q-43 0 -64.5 -22t-21.5 -62v-812h504h56h280v506q0 82 -82 82zM596 524v-532h-112
v112h-224v-112h-112v728q0 24 15 40t41 16h336q23 0 39.5 -16.5t16.5 -39.5v-196zM876 -8h-84v112h-56v-112h-84v476h168q22 0 39 -17t17 -39v-420zM736 384h56v-56h-56v56z" />
    <glyph glyph-name="fanhui" unicode="&#xe666;" 
d="M25 732l384 -376q3 -5 10 -11.5t31 -17t52 -10.5q24 0 46 6.5t32 13.5l10 7l386 388q0 5 -1.5 11.5t-9 21.5t-18 23t-29.5 6.5t-43 -19.5q-14 -9 -83.5 -59t-133 -95l-63.5 -45q-5 -2 -13 -4.5t-33 -7t-48 -4.5t-52.5 7t-52.5 23q-82 57 -270 196q-4 2 -10 4t-22 3
t-28.5 -2.5t-24.5 -18t-16 -40.5v0zM34 388l384 -377q3 -5 10 -11t31 -17t52 -11q24 0 46 7t32 13l10 7l387 389q-1 4 -2.5 10.5t-9 21.5t-17.5 23t-29.5 6.5t-43.5 -19.5q-13 -9 -83 -59t-133.5 -95l-63.5 -45q-4 -2 -12.5 -4.5t-33 -6.5t-48 -4.5t-53 6.5t-52.5 23
q-82 57 -270 196q-4 2 -10 4t-21.5 3t-28.5 -2.5t-25 -18t-16 -39.5v0z" />
    <glyph glyph-name="icon17" unicode="&#xe60e;" horiz-adv-x="1076" 
d="M405 523q8 1 12 8q4 9 35 77l43 92q13 29 31.5 29t32.5 -29l42 -92q33 -73 35 -77q3 -7 11 -8q20 -2 84 -10l99 -12q31 -4 37 -22t-17 -40l-73 -68q-27 -25 -62 -58q-6 -6 -4 -13q1 -10 16 -84l19 -99q6 -31 -9 -42t-43 4l-87 49q-70 39 -73 42q-8 4 -15 0q-3 -3 -73 -42
l-87 -49q-28 -15 -43 -4t-9 42l19 99q15 74 16 84q2 8 -4 13q-10 9 -62 58l-73 68q-23 22 -17.5 40t37.5 22l99 12q71 8 83 10z" />
    <glyph glyph-name="chaxun" unicode="&#xe617;" 
d="M947 71l-163 163q-15 15 -36.5 18t-39.5 -7l-31 31q75 93 75 214q0 94 -46 173.5t-126 126t-174 46.5t-173.5 -46.5t-126 -126t-46.5 -173.5t46.5 -174t126 -126t173.5 -46q121 0 214 75l31 -31q-10 -18 -7 -39.5t18 -36.5l163 -163q19 -19 46 -19t45 19l31 31
q19 18 19 45t-19 46zM124 490q0 117 82.5 199.5t199.5 82.5t199.5 -82.5t82.5 -199.5t-82.5 -199.5t-199.5 -82.5t-199.5 82.5t-82.5 199.5zM477 319q-103 0 -176.5 73t-73.5 176v4t0.5 4t0.5 3q-29 -46 -29 -101q0 -80 56.5 -136.5t136.5 -56.5q61 0 111 35q-13 -1 -26 -1z
" />
    <glyph glyph-name="icon-copy-copy" unicode="&#xe61b;" 
d="M576 346q16 16 16 39t-16 39l-383 394q-16 16 -38.5 16t-38 -16t-15.5 -39t16 -39l345 -355l-345 -354q-16 -16 -16 -39t15.5 -39t38 -16t38.5 16zM449 740l345 -355l-345 -354q-16 -16 -16 -39t16 -39t38 -16t38 16l383 393q16 16 16 39t-16 39l-383 394q-16 16 -38 16
t-38 -16t-16 -39t16 -39z" />
    <glyph glyph-name="dingwei" unicode="&#xe60f;" 
d="M706 159q91 -20 145.5 -55.5t54.5 -77.5t-53 -77.5t-143.5 -56t-197.5 -20.5t-197.5 20.5t-143.5 56t-53 77.5t54.5 77.5t145.5 55.5q-45 -15 -70.5 -35.5t-25.5 -43.5q0 -45 85 -76.5t205 -31.5t205 31.5t85 76.5q0 23 -25.5 43.5t-70.5 35.5zM512 896q111 0 190 -79
t79 -190q0 -42 -26.5 -112t-65 -141t-77.5 -135.5t-67.5 -105t-32.5 -40.5t-32.5 40.5t-67.5 105t-77.5 135.5t-65 141t-26.5 112q0 111 79 190t190 79zM512 782q64 0 109.5 -45.5t45.5 -109.5t-45.5 -109.5t-109.5 -45.5t-109.5 45.5t-45.5 109.5t45.5 109.5t109.5 45.5z
" />
    <glyph glyph-name="qiye" unicode="&#xe659;" 
d="M644 285l-1 1l-105 337h-178l-149 -474l238 -208l237 208l-43 136h1v0zM419 564h59l6 -20l-103 -104l38 124v0zM343 319l161 161l17 -56l-210 -210l32 105v0zM332 146l210 210l18 -57l-191 -189l-37 36v0zM449 30l-31 31l165 164l14 -47l-148 -148v0zM538 653l59 178
h-297l60 -178h178v0zM656 356l149 -89l-60 208l-148 89l59 -208v0zM656 356z" />
    <glyph glyph-name="tousu1" unicode="&#xe67b;" 
d="M870 486h-12q-25 122 -121.5 202t-224.5 80t-224.5 -80t-121.5 -202h-12q-10 0 -18 -8t-8 -17v-154q0 -9 8 -17t18 -8h108q10 0 18 8t8 17v154q0 9 -8 17t-18 8h-64q25 108 112.5 179t201.5 71t201.5 -71t112.5 -179h-58q-10 0 -18 -8t-8 -17v-154q0 -9 8 -17t18 -8h38
q-34 -69 -94.5 -117.5t-135.5 -62.5q-1 1 -6 7.5t-9.5 9.5t-10.5 3h-76q-10 0 -18 -8t-8 -18v-26q0 -9 8 -17t18 -8h70q10 0 18 8t8 17q89 15 158.5 71.5t103.5 140.5h32q10 0 18 8t8 17v154q4 9 -2.5 17t-17.5 8z" />
    <glyph glyph-name="diandiandian" unicode="&#xe642;" 
d="M143.5 463q-32.5 0 -55.5 -23t-23 -56t23 -56t55.5 -23t56 23t23.5 56t-23.5 56t-56 23zM512 463q-33 0 -56 -23t-23 -56t23 -56t56 -23t56 23t23 56t-23 56t-56 23zM880.5 463q-32.5 0 -56 -23t-23.5 -56t23.5 -56t56 -23t55.5 23t23 56t-23 56t-55.5 23z" />
    <glyph glyph-name="zhibiao06" unicode="&#xe6b8;" 
d="M512 104q0 -37 -26 -63t-64 -26h-179q-37 0 -63 26t-26 63v508q0 37 26 63.5t63 26.5v59h-60q-37 0 -63 -26t-26 -63v-627q0 -37 26 -63.5t63 -26.5h299q37 0 63.5 26.5t26.5 63.5v179h-60v-120v0zM512 104zM303 134h60v-60h-60v60v0zM303 134zM602 851q-89 0 -165 -38
t-120 -103.5t-44 -141.5q0 -110 92 -196l-34 -148l178 71q66 -13 93 -13q89 0 164.5 37.5t119.5 103t44 143t-44 143t-119.5 104t-164.5 38.5zM602 317q-46 0 -87 10h-5q-6 0 -13 -3l-123 -52l21 91q4 18 -9 32q-85 73 -85 173q0 104 88 177.5t212.5 73.5t212.5 -73.5
t88 -177.5t-88 -177.5t-212 -73.5zM538 700h-25l-119 -155v-26h118v-53h26v53h38v22h-38v159v0zM512 541h-95l94 124h1v-124v0zM512 541zM706 681q31 0 50 -15q18 -14 24 -41h27q-7 39 -31 59q-26 21 -70 21q-52 0 -82 -37q-28 -33 -28 -85.5t28 -85.5q31 -36 87 -36
q29 0 54 8t41 21v96h-100v-23h74v-60q-14 -8 -30 -13q-19 -5 -37 -5q-45 0 -69 27q-21 26 -21 70q0 46 22 72q22 27 61 27v0z" />
    <glyph glyph-name="guanlian" unicode="&#xe647;" horiz-adv-x="1025" 
d="M559 226l-179 -181q-41 -43 -101 -43t-102 43t-42 103.5t42 102.5l179 181q9 10 9 23t-9.5 22.5t-22.5 9.5t-23 -10l-178 -181q-61 -61 -61 -148t60.5 -148.5t147 -61.5t147.5 62l179 181q9 9 9 22.5t-9.5 22.5t-22.5 9t-23 -9zM892 472q61 61 61 148t-60.5 148.5
t-147 61.5t-147.5 -62l-179 -181q-9 -9 -9 -22.5t9.5 -22.5t22.5 -9t23 9l179 181q41 43 101 43t102 -43t42 -103.5t-42 -102.5l-179 -181q-9 -10 -9 -23t9.5 -22.5t22.5 -9.5t23 10zM276 577q9 -9 23 -9q13 0 22.5 9t9.5 22.5t-9 22.5l-125 126q-9 9 -22.5 9.5t-22.5 -9
t-9.5 -23t9.5 -22.5zM460.5 699q13.5 0 23 9t9.5 23v133q0 13 -9.5 22.5t-23 9.5t-22.5 -9.5t-9 -22.5v-133q0 -14 9 -23t22.5 -9zM196 441.5q0 13.5 -9.5 22.5t-22.5 9h-132q-13 0 -22.5 -9t-9.5 -22.5t9.5 -23t22.5 -9.5h132q13 0 22.5 9.5t9.5 23zM748 191q-9 9 -22.5 9
t-23 -9t-9.5 -22.5t9 -22.5l125 -126q9 -9 23 -9q13 0 22 9t9.5 22.5t-9.5 22.5zM563.5 69q-13.5 0 -23 -9t-9.5 -23v-133q0 -13 9.5 -22.5t23 -9.5t22.5 9.5t9 22.5v133q0 14 -9 23t-22.5 9zM992 359h-132q-13 0 -22.5 -9.5t-9.5 -23t9.5 -22.5t22.5 -9h132q13 0 22.5 9
t9.5 22.5t-9.5 23t-22.5 9.5z" />
    <glyph glyph-name="nianling" unicode="&#xe687;" 
d="M561 759q-21 3 -44 3q-103 0 -192 -52t-142.5 -142.5t-57.5 -198.5l17 25q-35 -15 -57 -48t-22 -74q0 -54 37 -92.5t89 -38.5h10l-2 29l-24 -14q52 -98 144 -155t200 -57q107 0 198.5 55.5t143.5 151.5l-23 -14q51 1 87.5 39t36.5 92q0 36 -17 66.5t-47 48.5l14 -25
q-2 130 -75 235q-6 10 -17.5 11.5t-20.5 -5.5t-11 -18.5t5 -21.5q63 -90 64 -202v-16l14 -8q36 -21 36 -65q0 -30 -20.5 -51.5t-49.5 -22.5h-16l-8 -14q-44 -83 -123 -131t-171 -48q-93 0 -172 49t-124 134l-8 16l-18 -2h-6q-29 0 -50 22t-21 52q0 23 12.5 42t32.5 27l16 7
l1 19q4 92 49.5 170t122 123t165.5 45q20 0 38 -2q11 -2 20 5.5t10.5 19.5t-6 21t-18.5 10zM700 243q-3 -6 -6 -11q-28 -51 -76.5 -80.5t-105.5 -29.5q-60 0 -111 32.5t-77 88.5q-5 10 -16 14t-21 -1.5t-14 -16.5t2 -22q33 -70 97 -111.5t140 -41.5q71 0 133 37.5t97 102.5
q4 7 7 13q5 11 1.5 22t-14 16.5t-21 1.5t-15.5 -14zM642 769q30 0 52 -22q22 -23 22 -55.5t-22 -55.5t-53 -23t-53 23q-8 8 -19.5 8t-19.5 -8.5t-7.5 -20.5t8.5 -20q38 -40 92 -39.5t91.5 40.5t37.5 96t-39 95q-37 38 -89 39q-11 1 -19 -7.5t-8.5 -20.5t7.5 -20.5t19 -8.5z
M716 409q17 -17 17 -41q0 -23 -16.5 -40t-39 -17t-38.5 17t-16 40.5t16 40.5t39 17q22 -1 38 -17zM389 409q16 -17 16 -41q0 -23 -16 -40t-38.5 -17t-39 17t-16.5 40.5t16.5 40.5t38.5 17q23 -1 39 -17v0z" />
    <glyph glyph-name="zhixian2" unicode="&#xe6f3;" 
d="M142 414h767v-61h-767v61z" />
    <glyph glyph-name="danxuan" unicode="&#xe646;" 
d="M512 824q-90 0 -171.5 -35t-140.5 -94t-94 -141t-35 -172t35 -171.5t94 -140.5t140.5 -94t171.5 -35t171.5 35t140.5 94t94 140.5t35 171.5t-35 172t-94 141t-140.5 94t-171.5 35v0zM512 -15q-108 0 -199.5 53t-144.5 144.5t-53 199.5t53 199.5t144.5 144.5t199.5 53
t199.5 -53t144.5 -144.5t53 -199.5t-53 -199.5t-144.5 -144.5t-199.5 -53v0z" />
    <glyph glyph-name="li" unicode="&#xe651;" 
d="M252 605h245q-11 21 -22 37l43 20q15 -21 36 -57h239v-39h-541v39zM449 219q66 2 135 5q-15 17 -30 33l29 22q44 -44 82 -88l-29 -26q-9 10 -22 25q-72 -3 -159 -9q-25 -1 -53 -6l-16 40q24 15 40 37q14 18 27 41h-124v-190h-42v227h186q12 24 24 51h-188v163h41v-127
h345v128h41v-184h-41v20h-148q-13 -26 -27 -51h237v-163q0 -61 -56 -61q-27 0 -59 1q-3 20 -8 44q33 -4 57 -4t24 26v120h-217q-24 -40 -49 -74zM380 528l15 30q65 -21 136 -47q58 23 109 50l17 -29q-38 -20 -79 -38q42 -15 87 -32l-15 -32q-61 25 -116 46q-68 -28 -144 -51
q-10 18 -20 32q60 17 114 37q-55 19 -104 34zM519.5 -84q-93.5 0 -178.5 36q-82 35 -145.5 98.5t-98.5 145.5q-36 85 -36 178.5t36 178.5q35 82 98.5 145.5t145.5 98.5q85 36 178.5 36t178.5 -36q82 -35 145.5 -98.5t98.5 -145.5q36 -85 36 -178.5t-36 -178.5
q-35 -82 -98.5 -145.5t-145.5 -98.5q-85 -36 -178.5 -36zM519.5 798q-114.5 0 -212.5 -57t-154.5 -154.5t-56.5 -212.5t56.5 -212.5t154.5 -154t212.5 -56.5t212.5 56.5t154.5 154t56.5 212.5t-56.5 212.5t-154.5 154.5t-212.5 57z" />
    <glyph glyph-name="danxuan1" unicode="&#xe630;" 
d="M512 830q-91 0 -173.5 -35.5t-142 -95t-95 -142t-35.5 -173.5t35.5 -173.5t95 -142t142 -95t173.5 -35.5t173.5 35.5t142 95t95 142t35.5 173.5t-35.5 173.5t-95 142t-142 95t-173.5 35.5zM512 2q-104 0 -192 51t-139 139t-51 192t51 192t139 139t192 51t192 -51
t139 -139t51 -192t-51 -192t-139 -139t-192 -51zM512 544q-66 0 -113 -47t-47 -113t47 -113t113 -47t113 47t47 113t-47 113t-113 47z" />
    <glyph glyph-name="zhibiao2" unicode="&#xe600;" horiz-adv-x="1031" 
d="M127 349h212v-353h-212v353zM409 773h212v-777h-212v777zM692 561h212v-565h-212v565z" />
    <glyph glyph-name="wangge2" unicode="&#xe756;" 
d="M702 201h191v-183h-191v183v0zM415 201h191v-183h-191v183v0zM129 201h191v-183h-191v183v0zM702 474h191v-182h-191v182v0zM415 474h191v-182h-191v182v0zM129 474h191v-182h-191v182v0zM702 748h191v-183h-191v183v0zM415 748h191v-183h-191v183v0zM129 748h191v-183
h-191v183v0z" />
    <glyph glyph-name="export" unicode="&#xe74c;" 
d="M262 562q-3 -3 -1.5 -6.5t4.5 -3.5h156l-1 -264q0 -7 5 -12.5t12 -5.5h152q7 0 12 5t5 13v264h155q4 0 5.5 4t-1.5 6l-240 232q-5 5 -12 5q-6 0 -11 -5zM1003 212l-151 121q-15 13 -35 13h-87l145 -151h-145l-73 -108h-290l-71 108h-145l145 151h-89q-20 0 -36 -13
l-150 -121q-16 -12 -10 -32l60 -191q3 -8 10.5 -14t15.5 -6h831q8 0 15.5 6t10.5 14l59 191q2 8 -1 17.5t-9 14.5v0z" />
    <glyph glyph-name="yingyeting1" unicode="&#xe725;" 
d="M918 64h-24v336q16 7 26.5 22.5t10.5 34.5v235q0 26 -18 44t-44 18h-164q-11 0 -18.5 -7.5t-7.5 -18t7.5 -18t18.5 -7.5h164q4 0 7 -3t3 -8v-235q0 -4 -3 -7t-7 -3h-718q-4 0 -7.5 3t-3.5 7v235q0 5 3.5 8t7.5 3h166q11 0 18.5 7.5t7.5 18t-7.5 18t-18.5 7.5h-166
q-25 0 -43 -18t-18 -44v-235q0 -38 35 -55v-337h-17q-10 0 -17.5 -7.5t-7.5 -18t7.5 -18t17.5 -7.5h810q10 0 17.5 7.5t7.5 18t-7.5 17.5t-17.5 7zM176 395h667v-331h-115v198q0 18 -12.5 31t-30.5 13h-350q-18 0 -30.5 -13t-12.5 -31v-198h-116v331zM678 64h-335v192h334
v-192h1zM415 726zM387 726.5q0 -11.5 8 -19.5t19.5 -8t19.5 8t8 19.5t-8 19.5t-19.5 8t-19.5 -8t-8 -19.5zM511 726zM483 726.5q0 -11.5 8.5 -19.5t19.5 -8t19 8t8 19.5t-8 19.5t-19 8t-19.5 -8t-8.5 -19.5zM607 726zM580 726v0q0 -11 8 -19t19 -8t19 8t8 19v0v0q0 12 -8 20
t-19 8t-19 -8t-8 -20v0z" />
    <glyph glyph-name="zhixianceliang" unicode="&#xe644;" 
d="M13 447h1005v-60h-1005v60z" />
    <glyph glyph-name="shangsheng" unicode="&#xe603;" 
d="M568 896q-2 0 -5.5 -2t-5.5 -2l-260 -336l-4 -7q0 -8 4 -8q9 -9 14 -3l83 36l170 213q6 6 11 0l178 -231l68 -18q8 -4 15 3q6 6 0 18l-261 337q2 -2 0 -1q-4 1 -7 1zM568 711q-2 0 -5.5 -1.5t-5.5 -1.5l-260 -337l-4 -7q0 -7 4 -7q9 -9 14 -4l174 69q2 -71 -1 -121.5
t-13 -101.5t-30 -90t-52.5 -79.5t-78.5 -77t-111 -76.5q52 10 93 21.5t87.5 32.5t81.5 48t69.5 68t57.5 93t40 124t23 159l174 -69q7 -3 14 4q6 6 0 18l-260 336h-11z" />
    <glyph glyph-name="xiajiang1" unicode="&#xe604;" 
d="M435 -128q7 0 14 7l313 410q3 3 3 10.5t-3 10.5q-4 8 -18 8l-209 -83q-2 86 1.5 147t16.5 122.5t36.5 108.5t62.5 96t94.5 93.5t133.5 93.5q-48 -10 -87.5 -20.5t-84 -27t-80 -36t-73 -48.5t-66.5 -64t-56 -82t-46 -103t-33 -127t-20 -153l-208 83q-12 5 -18 -8
q-6 -10 0 -21l312 -410q8 -7 15 -7z" />
    <glyph glyph-name="fangda1" unicode="&#xe631;" 
d="M764 195q94 115 94 266q0 115 -57 213t-155 155t-213.5 57t-213.5 -57t-155 -155t-57 -213.5t57 -213.5t155 -155t214 -57q85 0 162 32.5t136 90.5l247 -275l37 34zM432.5 85q-102.5 0 -189 50.5t-136.5 137t-50 188.5t50.5 188.5t137.5 137t188 50.5q102 0 188.5 -50.5
t136.5 -137t50 -188.5t-50 -188.5t-136.5 -137t-189 -50.5zM458 646h-50v-161h-161v-49h161v-161h50v161h160v49h-160v161z" />
    <glyph glyph-name="shangsheng1" unicode="&#xe6ac;" 
d="M570 896q-2 0 -6.5 -2t-6.5 -2l-319 -413l-5 -9q0 -8 5 -8q11 -12 17 -5l213 84q3 -86 -0.5 -148.5t-16 -124.5t-36.5 -110t-64 -97.5t-97 -94.5t-136 -94q49 10 89 20.5t85.5 27t82 36.5t74 49t67 64.5t57 83.5t47 104.5t33 128.5t19.5 155l213 -84q9 -4 18 5q7 7 0 22
l-320 412h-13z" />
    <glyph glyph-name="yingyeting" unicode="&#xe60c;" horiz-adv-x="1033" 
d="M939 717h-854l-76 -235q0 -54 36.5 -91t91.5 -37q51 0 89.5 38.5t38.5 89.5q0 -54 36.5 -91t91.5 -37q51 0 89.5 38.5t38.5 89.5q0 -54 36.5 -91t91.5 -37q51 0 89.5 38.5t38.5 89.5q0 -54 36.5 -91t91.5 -37q51 0 89.5 38.5t38.5 89.5zM171 755h682q20 0 33.5 11.5
t13.5 27.5t-13.5 27t-33.5 11h-682q-20 0 -33.5 -11t-13.5 -27t13.5 -27.5t33.5 -11.5zM764 350q-51 -51 -128 -51t-128 51q-51 -51 -128 -51t-128 51q-51 -51 -128 -51h-9v-286q0 -33 24.5 -55t52.5 -22h619q34 0 55 22t21 55v286h-8q-27 0 -59 13t-56 38zM764 350z" />
    <glyph glyph-name="shangchang" unicode="&#xe65e;" horiz-adv-x="1165" 
d="M1111 -128h-654q-22 0 -38 16t-16 38v420q0 23 16 39t38 16h654q22 0 38 -16t16 -39v-420q0 -22 -16 -38t-38 -16zM929 324h-29v-64q0 -52 -37 -89.5t-90 -37.5t-90 37.5t-37 89.5v64h-29v-64q0 -64 45.5 -110t110.5 -46t110.5 46t45.5 110v0v64zM366 385v-319h-295v0
q-23 0 -38.5 16t-15.5 38v462q0 22 15.5 38t38.5 16h197v54q0 85 60.5 145.5t145.5 60.5t145.5 -60.5t60.5 -145.5v-54h197q23 0 38.5 -16t15.5 -38v-143h-511q-22 0 -38 -16t-16 -38zM641 690q0 69 -49 118.5t-118 49.5t-118 -49.5t-50 -118.5v-54h335v54zM27 20h323
q4 0 7 -3t3 -8v-126v0q0 -5 -3 -8t-7 -3h-339v0q-4 0 -7.5 3t-3.5 8v0l17 126q0 5 3 8t7 3z" />
    <glyph glyph-name="sousuo_sousuo" unicode="&#xe602;" 
d="M1010 -40v0v0v0q14 -16 14 -35q0 -22 -15 -38q-15 -15 -37 -15h-1v0q-9 0 -17.5 3t-15.5 8l-6 5l-282 285q-102 -72 -228 -72q-12 0 -25 1t-26 3q-37 4 -84.5 21.5t-78.5 38.5q-80 51 -128 136q-23 39 -36 83t-16 90v24q0 34 5 68q5 30 20 70.5t31 67t44.5 58.5t53.5 51
q50 40 113 61q62 22 127 22q28 0 53 -3q67 -10 129 -42q26 -13 57.5 -37t50.5 -45q53 -56 81.5 -132.5t24.5 -155.5q-4 -131 -90 -236l283 -285h-1v0zM759 482v17q0 26 -7 61.5t-16 58.5q-15 41 -40 76t-59 63t-73 47q-27 12 -68 21t-72 9q-19 0 -38 -2q-5 0 -11 -1l-6 -1
q-31 -5 -70.5 -21t-65.5 -33q-26 -18 -54.5 -49t-44.5 -58q-42 -70 -46 -155.5t31 -159.5q13 -27 38 -60.5t49 -53.5q23 -20 60 -39.5t66 -27.5q73 -21 148 -8q39 7 75 22.5t68 39.5t57 54q26 30 43 65v0q14 27 24 66.5t12 68.5z" />
    <glyph glyph-name="tubiao_zhexiantu" unicode="&#xe72d;" 
d="M192 64v704h-64v-704v0v-64h768v64h-704zM609 256l-184 162l-123 -154l-50 40l165 207l185 -163l248 297l49 -42z" />
    <glyph glyph-name="user_add" unicode="&#xe61c;" 
d="M611 158q0 41 16 80q-10 7 -16 11v66q27 46 41 99q11 1 22 16t17 37t4 40t-11 24h1q7 52 -4 112.5t-42 88.5q-27 25 -75.5 40t-104 10t-91.5 -36q-34 -5 -62 -39t-26 -89q3 -77 5 -86q-10 -5 -12 -23.5t4 -41.5q6 -22 17 -37t21 -16q12 -43 32 -82q3 -41 3 -77
q-2 1 -5 -1q-2 0 -4 -2q-11 -7 -29.5 -23.5t-35.5 -27.5q-6 -4 -15 -9q-25 -7 -103 -21q-7 -2 -12 -4q-52 -28 -82 -77t-37 -106h675q-42 30 -66.5 75.5t-24.5 98.5zM276 201zM823.5 332q-72.5 0 -123 -51t-50.5 -123t50.5 -123t123 -51t123 51t50.5 123t-50.5 123t-123 51z
M866 116v-85h-85v85h-85v85h85v85h85v-85h85v-85h-85z" />
    <glyph glyph-name="fuxuan" unicode="&#xe632;" horiz-adv-x="1031" 
d="M833 807h-636q-44 0 -75 -31.5t-31 -74.5v-636q0 -44 31 -75t75 -31h636q44 0 75 31t31 75v636q0 43 -31 74.5t-75 31.5zM897 65q0 -27 -19 -45.5t-45 -18.5h-636q-26 0 -45 18.5t-19 45.5v636q0 26 19 44.5t45 18.5h636q26 0 45 -18.5t19 -44.5v-636zM115 434l234 -187
l584 539q2 1 5 3.5t11.5 7t17 6.5t19.5 0t21 -10q6 -5 9.5 -13t1 -23.5t-15.5 -32.5l-610 -714q-2 -3 -5 -7t-14.5 -11.5t-22.5 -10t-27.5 4t-32.5 24.5l-263 356q-1 2 -3 5t-5.5 13t-4 19t4.5 20t16 20q39 28 80 -9z" />
    <glyph glyph-name="zhixian" unicode="&#xe643;" horiz-adv-x="14000" 
d="M0 -8h14001v-120h-14001v120z" />
    <glyph glyph-name="zhixian1" unicode="&#xe688;" 
d="M502 894h41v-1022h-41v1022z" />
    <glyph glyph-name="sou" unicode="&#xe606;" 
d="M873 77v0v0v0q10 -12 10 -26q0 -15 -11 -27q-11 -11 -27 -11v0q-7 0 -13 2q-9 3 -16 11v-1l-204 206q-74 -52 -165 -52q-9 0 -19 1q-18 1 -35 6q-56 3 -117 51q-41 24 -77 87q-29 49 -35 109l-1 -1q-2 16 -2 32q0 4 0 3q0 25 5 50q10 67 52 122q10 20 40 44.5t66 40.5
l-10 -3q10 7 41 18q43 16 92 16v0q20 0 38 -3q49 -6 94 -29q73 -39 113 -109l-2 7q11 -12 26 -54q20 -56 18 -113q-4 -95 -66 -171l206 -206h-1v0zM691 455v13q0 46 -18 88q-19 53 -61 91q-8 7 0 -1q-5 5 -10 9q-47 40 -108 52q-15 3 0 1q-24 3 -45 3q-15 0 -30 -2
q-2 0 -6 -1h-5q-66 -11 -116 -53q-19 -12 -39.5 -41t-32.5 -64q-1 3 -3 -3q-10 -24 -12 -69q-3 -62 23 -115q31 -69 97 -106q0 -3 12 -9.5t34 -13t44 -9.5q1 -2 11.5 -2.5t28 0t33.5 3.5q46 8 84 31q7 2 27 18.5t37 37.5l-1 -4q12 11 33 53q2 3 3 7l-14 -26q4 7 8 15v0
q25 48 26 104v-7z" />
    <glyph glyph-name="tousu2" unicode="&#xe637;" 
d="M512 235q-22 0 -37 -15t-15 -37t15 -37t37.5 -15t37.5 15t15 37q0 20 -15.5 36t-37.5 16zM512.5 675.5q-22.5 0.5 -37.5 -14.5t-15 -38v-268q0 -23 15 -38t37.5 -15t37.5 15t15 38v268q0 23 -15 37.5t-37.5 15zM904 586v138q0 11 -7.5 21t-18.5 13q-168 54 -362 74h-4
q-117 -6 -197 -26q-90 -22 -168 -45q-11 -2 -18.5 -12t-7.5 -21v-127q-1 -84 -0.5 -151.5t9.5 -123.5t28 -103t55.5 -90.5t91.5 -85.5t136 -88q40 -22 71.5 -22t70.5 22q83 45 138 83.5t92 80t55 86t27.5 100t9 123t-0.5 154.5zM553 19q-22 -11 -37 -11q-17 0 -37 15
q-74 40 -122.5 75t-82 73t-49.5 78t-25 91.5t-8.5 114.5t0.5 146v101q44 14 141 37q79 17 180 22q169 -20 320 -59v-116q7 -99 2 -174.5t-14 -127t-42.5 -96.5t-84.5 -82.5t-141 -86.5zM553 19z" />
    <glyph glyph-name="biaotou-zhengxu" unicode="&#xe8f7;" 
d="M256 256l256 256l256 -256h-512z" />
    <glyph glyph-name="biaotou-daoxu" unicode="&#xe8f8;" 
d="M256 512l256 -256l256 256h-512z" />
    <glyph glyph-name="tower" unicode="&#xe7da;" 
d="M148 576v1q0 93 65 159q10 10 10 25t-10.5 25.5t-25.5 10.5t-26 -11q-85 -87 -85 -210q0 -125 88 -213q11 -11 26 -11t25.5 10.5t10.5 25.5t-11 26q-67 67 -67 161v1v0zM685 712q-11 -10 -11 -26q0 -14 10 -24q34 -36 34 -86q0 -51 -37 -88q-11 -10 -11 -26
q0 -15 10.5 -25.5t25.5 -10.5t26 11q58 58 58 139q0 79 -55 135q-10 11 -25 11t-25 -10v0zM864 786q-10 11 -26 11q-15 0 -25.5 -10.5t-10.5 -25.5t11 -25q65 -67 65 -160q0 -95 -68 -162q-10 -11 -10 -26t10.5 -25.5t25.5 -10.5t25 11q89 88 89 213q0 123 -86 210v0z
M344 438q11 10 11 25t-11 25q-36 37 -36 88q0 50 34 86q10 10 10 24q0 15 -10.5 25.5t-25.5 10.5t-26 -11q-54 -56 -54 -135q0 -81 58 -139q10 -10 25 -10t25 11v0zM565 492q43 29 43 80q0 40 -28 68t-68 28t-68 -28t-28 -68q0 -50 42 -79l-162 -444q-2 -6 -2 -13
q0 -25 24 -33q6 -3 12 -3q25 0 34 24l34 94h227l35 -96q8 -22 31 -22q5 0 11 2l6 3q22 8 22 30q0 6 -2 12zM512 430l43 -120h-87zM421 182l24 64h133l24 -64h-181z" />
    <glyph glyph-name="qiehuan1" unicode="&#xe628;" horiz-adv-x="1353" 
d="M48 379q4 -3 9 -3h3l58 11l25 5l228 43q10 2 12 12q1 2 1 4q0 7 -7 12l-95 106q75 82 170 133.5t235 76.5q183 34 356 -10.5t265 -134.5q-15 33 -49 67.5t-73 61.5q-183 128 -430 128q-286 0 -446 -115q-32 -23 -58 -47.5t-80 -82.5l-134 68q-4 3 -10 3q-4 0 -7 -2
q-8 -4 -8 -13v-2l29 -310q0 -7 6 -11v0zM1339 67l-28 310q-1 7 -7 11q-4 3 -9 3h-3l-58 -11l-25 -5l-228 -43q-10 -2 -12.5 -12t6.5 -16l95 -106q-75 -82 -170 -133t-235 -77q-183 -33 -356 11t-265 134q15 -33 49 -67.5t73 -61.5q184 -128 430 -128q286 0 446 115
q32 23 58 47.5t80 82.5l134 -68q4 -3 10 -3q4 0 7 2q8 4 8 14v1v0z" />
    <glyph glyph-name="portal-icon-duankaigongwang" unicode="&#xe66a;" 
d="M512 832q-122 0 -225 -60t-163 -163t-60 -225t60 -225t163 -163t225 -60t225 60t163 163t60 225t-60 225t-163 163t-225 60zM401 751q-59 -61 -81 -196l63 -11q6 37 15 68t24 60.5t38 46.5t52 17q97 0 129 -192l63 11q-22 135 -81 196q114 -35 188.5 -127.5t83.5 -212.5
l-765 5q10 120 85.5 211.5t188.5 124.5zM623 17q59 61 81 196l-63 11q-6 -37 -15 -68t-24 -60.5t-38 -46.5t-52 -17t-52 17t-38 46.5t-24 60.5t-15 68l-63 -11q22 -135 81 -196q-114 35 -188.5 127.5t-83.5 212.5l765 -5q-10 -120 -85.5 -211.5t-188.5 -124.5z" />
    <glyph glyph-name="dingwei_suoxiao" unicode="&#xe633;" 
d="M695 247l265 -265l-46 -46l-265 265q-90 -73 -218 -73h-5q-99 0 -181.5 43.5t-131.5 122.5t-49 177t48 181t131 131.5t181 48.5q97 0 176.5 -49t123.5 -132t44 -182q0 -130 -73 -222zM416 192q119 0 203.5 84.5t84.5 203.5t-84.5 203.5t-203.5 84.5t-203.5 -84.5
t-84.5 -203.5t84.5 -203.5t203.5 -84.5zM256 512h320v-64h-320v64z" />
    <glyph glyph-name="liuliang" unicode="&#xe61d;" horiz-adv-x="1237" 
d="M648 -50l1 1zM733 -64q-1 -4 -4 -13q-7 -13 -13 -15.5t-37 -7.5q-18 11 -21.5 13.5t-6.5 9.5q-2 5 -3 9l-172 629l-103 -500q-1 -5 -4 -13q-6 -9 -10 -12t-26 -10q-22 5 -27 7.5t-12 11.5q-4 8 -6 13l-74 263h-214v85h278l46 -161l104 503q1 5 4 13q5 9 9.5 12t26.5 11
q24 -6 29 -8.5t11 -12.5q4 -7 5 -12l166 -609l114 716q1 6 5 15q7 12 12.5 14.5t32.5 7.5q19 -9 23 -11.5t8 -9.5q3 -7 4 -12l112 -447h222v-85h-288l-79 313z" />
    <glyph glyph-name="qiehuanchangjing" unicode="&#xe6a0;" 
d="M512 832q-91 0 -173.5 -35.5t-142.5 -95.5t-95.5 -142.5t-35.5 -173.5t35.5 -173.5t95.5 -142.5t142.5 -95t173.5 -35t173.5 35t142.5 95t95 142.5t35 173.5t-35 173.5t-95 142.5t-142.5 95.5t-173.5 35.5zM753 285h-397l103 -123q7 -9 6 -21t-10 -19q-8 -7 -18 -7v0
q-14 0 -22 10l-174 209q-1 2 -1 3v3q2 2 5 2h508q12 0 20.5 -8t8.5 -20t-8.5 -20.5t-20.5 -8.5zM783 431q-1 -3 -4 -3h-508v0h-1q-11 0 -19.5 8.5t-8.5 20t8.5 20t19.5 8.5h398l-103 123q-8 10 -6.5 21.5t10.5 19.5q8 6 18 6q13 0 22 -10l174 -209q1 -1 1 -3q0 -1 -1 -2z
" />
    <glyph glyph-name="changjingku" unicode="&#xe609;" 
d="M921 -128h-819q-28 0 -48 20t-20 48v410h955v-410v0q0 -28 -20 -48t-48 -20zM785 555h136v0q28 0 48 -20t20 -49v-68h-308zM340 418l103 137h223l-103 -137h-223zM34 418v68q0 29 20 49t48 20h223l-103 -137h-188v0zM59 622l885 272q5 2 11 2q10 0 20 -7t14 -17
q1 -5 1 -11q0 -10 -7 -20t-18 -13l-885 -271q-5 -2 -11 -2q-10 0 -20 7t-14 17q-1 5 -1 10q0 11 7 20.5t18 12.5v0z" />
    <glyph glyph-name="laiyuandi" unicode="&#xe61e;" horiz-adv-x="1026" 
d="M512.5 896q-104.5 0 -199 -40.5t-163 -109t-109 -163.5t-40.5 -199t40.5 -199t109 -163.5t163 -109t199 -40.5t199 40.5t163.5 109t109.5 163.5t40.5 199t-40.5 199t-109.5 163.5t-163.5 109t-199 40.5zM513 -84q-95 0 -182 37t-149.5 100t-99.5 149.5t-37 181.5
t37 181.5t99.5 149t149.5 99.5t182 37t181.5 -37t149 -99.5t99.5 -149t37 -181.5t-37 -181.5t-99.5 -149.5t-149 -100t-181.5 -37zM526 106q111 155 162 253v0q30 49 30 106q0 84 -60 144t-145 60t-145 -60t-60 -144q0 -57 29 -106v0q47 -99 162 -254q1 0 1 -1h1v-1v0h1v-1
v0q1 -1 2 -1v0q1 -1 2 -1h1v-1h1.5h1h0.5v0h1h1h1v0v0v0h1v0h1h1h0.5h1.5v0l1 1v0h1v0l1 1h1l1 1v0l1 1v0v0l1 1v0q1 1 1 2zM365 378q-24 40 -24 87q0 71 50.5 121t121.5 50t121 -50t50 -121q0 -47 -24 -87q0 -1 -1 -2q-44 -86 -147 -232q-106 145 -145 231q-1 2 -2 3z
M512.5 340q51.5 0 88 36.5t36.5 88t-36.5 88t-88 36.5t-88 -36.5t-36.5 -88t36.5 -88t88 -36.5zM512.5 555q37.5 0 64 -26.5t26.5 -64t-26.5 -64t-64 -26.5t-64 26.5t-26.5 64t26.5 64t64 26.5zM513 555zM513 97h-1h-1v0h-1h-1.5h-0.5h-1l-1 1v0v0q-2 0 -3 1t-2 1v1v0h-1v0
v1h-1v0q-1 1 -1 2q-115 154 -163 254v0q-29 49 -29 107q0 85 60.5 145.5t146 60.5t146.5 -60.5t61 -145.5q0 -58 -30 -107v-1q-53 -99 -162 -252q-1 -2 -2 -2v-1l-1 -1v0h-1q0 -1 -1 -2v0h-2v0q0 -1 -1 -1v0h-1v-0.5t-1 -0.5h-2h-1h-1v0h-1v0zM505 103v0q1 -1 2 -1v-1h1h1
h0.5h0.5h1v0h1h1v0h1v0h1v0h0.5h1.5h1v1v0h1h1v1h1l1 1v0h1v1v0h1q0 1 1 2q111 155 162 253l1 2v0q28 47 28 103q0 84 -59.5 143t-143.5 59t-143.5 -59t-59.5 -143q0 -56 28 -103v0l1 -2q47 -99 162 -253q0 -1 1 -2l-1 -1l1 1v0v0l1 -1v0h1q0 -1 1 -1v0zM512 141l-1 2
q-107 145 -146 231q-1 1 -2 3v0q-24 40 -24 88q0 71 51 122t122.5 51t122.5 -51t51 -122q0 -48 -24 -88v0q-1 -1 -1 -2q-44 -85 -147 -232zM367 379q1 -2 2 -3q39 -85 143 -229q102 145 145 229q1 2 2 3q23 40 23 86q0 70 -49.5 119.5t-119.5 49.5t-120 -49.5t-50 -119.5
q0 -46 24 -86zM512.5 338q-52.5 0 -89.5 37t-37 89.5t37 89.5t89.5 37t89.5 -37t37 -89.5t-37 -89.5t-89.5 -37zM512.5 587q-50.5 0 -86.5 -36t-36 -86.5t36 -86.5t86.5 -36t86.5 36t36 86.5t-36 86.5t-86.5 36zM512.5 372q-38.5 0 -65.5 27t-27 65.5t27 65.5t65.5 27
t65.5 -27t27 -65.5t-27 -65.5t-65.5 -27zM512.5 553q-36.5 0 -62.5 -26t-26 -62.5t26 -62.5t62.5 -26t62.5 26t26 62.5t-26 62.5t-62.5 26z" />
    <glyph glyph-name="shangsheng2" unicode="&#xe605;" 
d="M456 -128q2 0 5.5 2t5.5 2l260 336l4 7q0 8 -4 8q-9 9 -14 3l-83 -36l-170 -213q-6 -6 -11 0l-178 231l-68 18q-8 4 -15 -3q-6 -6 0 -18l261 -337q-2 2 0 1q4 -1 7 -1zM456 57q2 0 5.5 1.5t5.5 1.5l260 337l4 7q0 7 -4 7q-9 9 -14 4l-174 -69q-2 71 1 121.5t13 101.5
t30 90t52.5 79.5t78.5 77t111 76.5q-52 -10 -93 -21.5t-87.5 -32.5t-81.5 -48t-69.5 -68t-57.5 -93t-40 -124t-23 -159l-174 69q-7 3 -14 -4q-6 -6 0 -18l260 -336h11z" />
    <glyph glyph-name="guanlian1" unicode="&#xe648;" 
d="M740 310q-15 0 -26 11t-11 26.5t11 26.5l129 129q44 44 44 106t-44 106t-106 44t-106 -44l-129 -129q-11 -11 -26.5 -11t-26.5 11t-11 26.5t11 26.5l129 129q66 66 159 66t159 -66t66 -159t-66 -159l-129 -129q-11 -11 -27 -11v0zM287 -66q-93 0 -159 66t-66 159t66 159
l132 132q11 11 26.5 11t26.5 -11t11 -26.5t-11 -26.5l-132 -132q-44 -44 -44 -106t44 -106t106 -44t106 44l132 132q11 11 26.5 11t26.5 -11t11 -26.5t-11 -26.5l-132 -132q-66 -66 -159 -66v0zM400 234q-16 0 -27 11t-11 26.5t11 26.5l225 225q11 11 26.5 11t26.5 -11
t11 -26.5t-11 -26.5l-225 -225q-11 -11 -26 -11v0z" />
    <glyph glyph-name="xiaoyuan" unicode="&#xe61f;" 
d="M513.5 484q-44.5 0 -76 -31.5t-31.5 -75.5t31.5 -75t76 -31t76 31t31.5 75t-31.5 75.5t-76 31.5zM514 312q-27 0 -46.5 19t-19.5 46t19 46.5t46.5 19.5t47 -19.5t19.5 -46.5t-19.5 -46t-46.5 -19zM207 164h48v-71h-48v71zM207 54h48v-70h-48v70zM578 126h-130
q-10 0 -17 -7t-7 -17v-0.5v-0.5v0v0v-157q0 -10 7 -17t17 -7t17 7t7 17v134h83v-134q0 -10 7 -17t17 -7t17 7t7 17v157v0q0 7 -4 13q-7 12 -21 12v0zM772 164h48v-71h-48v71zM772 54h48v-70h-48v70zM951 379h-232v111l-49 25v-572q0 -9 7 -16t17 -7t17.5 7t7.5 16v292h232
q10 0 17.5 7t7.5 17v96q0 10 -7.5 17t-17.5 7zM927 282h-208v49h208v-49zM104 -56q0 -10 7 -17t17 -7t17 7t7 17v291h-48v-291zM875 -56q0 -10 7.5 -17t17.5 -7t17 7t7 17v291h-49v-291zM309 379h-233q-10 0 -17 -7t-7 -17v-97q0 -9 7 -16t17 -7h233v-292q0 -9 7 -16t17 -7
t17 6t7 16v572l-48 -25v-110zM308 282h-208v49h208v-49zM244 509q-9 -4 -12 -13.5t1 -18.5q7 -13 22 -13q5 0 11 3l248 127l248 -127q5 -3 11 -3q14 0 21 13q5 9 2 18.5t-12 13.5l-246 130v41l137 56q5 2 9 5l-4 -3q5 3 7 8l-2 -3v0q4 5 5 11l-1 -5v0.5v0.5l0.5 1.5t0.5 2v1
v0.5v3v2v1v1q0 1 -1 3v2h-1q0 2 -1 3l-1 1q-2 3 -5 6l-2 2h-3q-4 4 -13 5l12 -4l-151 61q-15 6 -27 -6q-8 -7 -8 -17v-179zM538 784l64 -26l-64 -26v52zM900 -81h-771q-6 0 -10.5 4.5t-4.5 11.5v1q0 7 4.5 11.5t10.5 4.5h771q6 0 10.5 -4.5t4.5 -11.5v-1q0 -7 -4.5 -11.5
t-10.5 -4.5z" />
    <glyph glyph-name="changzhulvke" unicode="&#xe70a;" 
d="M738 529q0 103 -71.5 175.5t-172.5 72.5t-172.5 -72t-71.5 -176q0 -69 34 -126t91 -88q-78 -31 -132.5 -96t-70.5 -151q-2 -11 4 -21t18 -12h5q23 0 27 22q19 97 93.5 160t172.5 66h6q99 0 169.5 72t70.5 174zM304 529q0 81 55.5 136.5t134.5 55.5t134.5 -55.5
t55.5 -136.5q0 -78 -54.5 -134t-132.5 -58h-8q-78 2 -131.5 58t-53.5 134zM898 222q-3 14 -21 20l-71 10l-33 69q-8 16 -24 16t-25 -16l-33 -69l-70 -10q-19 -5 -22 -20q-3 -14 6 -27l51 -53l-13 -76q-4 -18 11 -28q11 -8 30 -3l62 36l62 -36q6 -2 14 -2q6 0 16 5
q15 11 11 28l-11 77l52 52q13 12 8 27zM792 170q-8 -8 -8 -25l6 -32l-28 13q-5 3 -13 3t-13 -3l-27 -13l5 32q4 13 -8 25l-25 25l33 5q12 0 22 17l13 27l13 -27q4 -13 22 -17l33 -5z" />
    <glyph glyph-name="suoxiao" unicode="&#xe636;" 
d="M1014 -101q-10 -9 -23.5 -9t-23.5 9l-265 257q-49 -39 -128 -66t-142 -27h-1q-117 0 -216.5 55.5t-157 151.5t-57.5 209.5t57.5 209.5t157 151.5t216.5 55.5t216 -55.5t156.5 -151.5t57.5 -210q0 -160 -111 -279l264 -255q10 -10 10 -23t-10 -23v0zM795 479.5
q0 95.5 -48.5 177t-132.5 128.5t-183 47t-183 -47t-133 -128.5t-49 -177t49 -177t133 -128.5t183 -47t183 47t132.5 128.5t48.5 177zM277 445h-1q-12 0 -21.5 9t-9.5 22q0 12 9.5 21t22.5 9h321q13 0 22.5 -9t9.5 -21.5t-9.5 -21.5t-22.5 -9h-322h1z" />
    <glyph glyph-name="icon-test" unicode="&#xe63e;" 
d="M512 725zM478 725q0 -14 10 -24t24 -10t24 10t10 24t-10 24t-24 10t-24 -10t-10 -24zM512 589zM478 589q0 -14 10 -24t24 -10t24 10t10 24t-10 24t-24 10t-24 -10t-10 -24zM512 452zM478 452q0 -14 10 -24t24 -10t24 10t10 24t-10 24t-24 10t-24 -10t-10 -24zM512 316z
M478 316q0 -14 10 -24t24 -10t24 10t10 24t-10 24t-24 10t-24 -10t-10 -24zM512 179zM478 179q0 -14 10 -24t24 -10t24 10t10 24t-10 24t-24 10t-24 -10t-10 -24zM512 43zM478 43q0 -14 10 -24t24 -10t24 10t10 24t-10 24t-24 10t-24 -10t-10 -24zM512 -94zM478 -94
q0 -14 10 -24t24 -10t24 10t10 24t-10 24t-24 10t-24 -10t-10 -24zM512 862zM478 862q0 -14 10 -24t24 -10t24 10t10 24t-10 24t-24 10t-24 -10t-10 -24z" />
    <glyph glyph-name="xingqudian1" unicode="&#xe60a;" 
d="M445 288q0 104 70.5 180t172.5 84l-220 178q-18 14 -44.5 14t-44.5 -14l-145 -117v60q0 11 -8 19.5t-20 8.5h-27q-11 0 -19.5 -8.5t-8.5 -19.5v-127l-69 -56q-18 -14 -18 -35t18 -36l20 -16v-329q0 -21 18.5 -35.5t44.5 -14.5h517h10q-104 7 -175.5 83.5t-71.5 180.5z
M276 299q0 -9 -6 -15t-15 -6h-41q-9 0 -15 6t-6 15v41q0 9 6 15t15 6h41q9 0 15 -6t6 -15v-41zM711 537q-103 0 -175.5 -73t-72.5 -176t72.5 -175.5t175.5 -72.5t176 72.5t73 175.5t-73 176t-176 73zM710.5 85q-84.5 0 -144 59.5t-59.5 144t59.5 144t144 59.5t144 -59.5
t59.5 -144t-59.5 -144t-144 -59.5zM656 345l40 73q10 16 13 16q5 4 14 -12l42 -77q58 -11 65 -13q22 -4 25 -13q6 -9 -19 -32l-41 -47l9 -77q-1 -1 0 -6.5t-4.5 -10t-16.5 -1.5l-71 37l-75 -36q-3 -1 -6.5 -1.5t-9 4t-4.5 15.5l9 76l-58 66q-13 15 8 23z" />
    <glyph glyph-name="kuandai" unicode="&#xe620;" 
d="M938 224v-10h-64q-8 0 -14.5 6t-6.5 15t6 15.5t15 6.5h61q-4 11 -8 18l-89 143q-6 10 -17 10h-618q-11 0 -17 -10l-89 -143q-4 -6 -8 -18h680q8 0 14.5 -6.5t6.5 -15.5t-6.5 -15t-14.5 -6h-683v10v-118q0 -8 6 -14t14 -6h812q8 0 14 6t6 14v118zM256 746q0 9 6.5 15.5
t15 6.5t15 -6.5t6.5 -15.5v-276h-43v276zM726 746q0 9 6 15.5t15 6.5t15.5 -6.5t6.5 -15.5v-276h-43v276v0zM42 235q0 22 11 39l106 178q5 7 14.5 12.5t17.5 5.5h641q9 0 18.5 -5.5t13.5 -12.5l106 -178q11 -17 11 -39v-149q0 -18 -12.5 -30.5t-30.5 -12.5h-852
q-18 0 -31 12.5t-13 30.5v149zM170 149.5q0 8.5 6.5 15t15.5 6.5h42q9 0 15.5 -6.5t6.5 -15t-6 -15t-16 -6.5h-42q-9 0 -15.5 6.5t-6.5 15zM342 149.5q0 8.5 6 15t15 6.5h43q8 0 14.5 -6.5t6.5 -15t-6 -15t-15 -6.5h-43q-9 0 -15 6.5t-6 15z" />
    <glyph glyph-name="indicator-manage" unicode="&#xe62d;" 
d="M243 282q-14 0 -23 8.5t-9 23.5v422q0 11 9.5 21.5t22.5 10.5q15 0 23.5 -9t8.5 -23v-416q0 -15 -9 -26.5t-23 -11.5zM243.5 -26q-14.5 0 -23.5 9t-9 23v128q0 15 9 23.5t23.5 8.5t23 -8.5t8.5 -23.5v-128q0 -14 -8.5 -23t-23 -9zM780.5 576q-14.5 0 -23 9t-8.5 23v128
q0 14 8.5 23t23 9t23.5 -9t9 -23v-128q0 -14 -9 -23t-23.5 -9zM781 486q-15 0 -23.5 -8.5t-8.5 -23.5v-448q0 -14 8.5 -23t23 -9t23.5 9t9 23v448q0 11 -9.5 21.5t-22.5 10.5zM243 109q-43 0 -72.5 29.5t-29.5 72.5t29.5 73t72.5 30t73 -30t30 -73t-30 -72.5t-73 -29.5z
M243.5 250q-14.5 0 -26.5 -12t-12 -26.5t12 -26.5t26.5 -12t26.5 12t12 26.5t-12 26.5t-26.5 12zM512 230q-43 0 -72.5 30t-29.5 73t29.5 72.5t72.5 29.5t72.5 -29.5t29.5 -72.5t-29.5 -73t-72.5 -30zM512 371q-14 0 -26 -12t-12 -26.5t12 -26.5t26 -12t26 12t12 26.5
t-12 26.5t-26 12zM781 429q-43 0 -73 29.5t-30 72.5t30 73t73 30t72.5 -30t29.5 -73t-29.5 -72.5t-72.5 -29.5zM780.5 570q-14.5 0 -26.5 -12t-12 -26.5t12 -26.5t26.5 -12t26.5 12t12 26.5t-12 26.5t-26.5 12zM512 378q-14 0 -23 8.5t-9 23.5v326q0 14 9 23t23 9t23 -9
t9 -23v-326q0 -15 -9 -23.5t-23 -8.5zM512 -26q-14 0 -23 9t-9 23v256q0 15 9 23.5t23 8.5t23 -8.5t9 -23.5v-256q0 -14 -9 -23t-23 -9z" />
    <glyph glyph-name="jingdian" unicode="&#xe621;" horiz-adv-x="1237" 
d="M1089 58h-963q-18 0 -30 -12q-9 -13 -0.5 -25.5t30.5 -12.5h963q18 0 31 12q8 13 0 26q-13 12 -31 12zM986 -68h-760q-17 0 -30 -12q-8 -13 0.5 -25.5t29.5 -12.5h763q17 0 30 13q8 12 0 25q-13 12 -33 12zM1092 307q1 0 4 -1t6 -1q20 0 28 15q68 90 68 209q0 97 -49 180
t-132.5 131t-181.5 48q-107 0 -197.5 -59t-134.5 -157l-53 73q-11 15 -30 15q-17 0 -28 -15l-347 -551q-7 -11 -4 -25.5t14 -22.5q17 -11 48 35l320 504l317 -438q10 -15 27 -15q15 0 28 12l146 171l181 -239q1 -1 4.5 -5t5 -6t5 -6t6 -6t5.5 -4.5t5.5 -4t5.5 -2.5t5.5 -0.5
t5.5 2.5q11 7 13 21.5t-6 26.5zM1067 340l-101 131q-12 12 -27.5 12t-27.5 -12l-144 -171l-226 312q3 2 0.5 5.5t-5 10.5t-0.5 11q36 89 116 143t178 54q130 0 222.5 -89t94.5 -216q0 -99 -60 -178q-1 -2 -6 -4t-9.5 -4t-4.5 -5z" />
    <glyph glyph-name="duanwang-" unicode="&#xe656;" horiz-adv-x="1025" 
d="M697 255q9 -2 17 4t9 16q2 10 -4 18t-16 9l-170 27l-6 -47zM988 114l37 235q4 29 -13.5 53t-46.5 29l-280 43q-29 3 -54 -12q-21 -16 -28 -47l-9 -47l48 -9l8 48q1 9 9 15.5t17 4.5l281 -43q9 -2 15.5 -10t4.5 -17l-36 -235q-2 -10 -10 -16t-17 -5l-281 43q-9 2 -15.5 10
t-4.5 17l8 47l-47 8l-8 -47q-3 -28 12 -53q15 -22 47 -29l281 -43q28 -3 53 13q22 19 29 47zM322 302q-16 -4 -18 -14q-4 -15 4 -23q11 -11 22 -8l168 27l-6 47zM461 181l-8 47l-47 -8l8 -47q0 -12 -4 -18q-7 -8 -16 -11l-281 -45q-9 -1 -17 4.5t-9 16.5l-39 233
q-2 10 4 17.5t16 9.5l281 47q9 2 17 -4t9 -16l8 -48l48 9l-9 47q-2 25 -28 47q-26 18 -54 12l-280 -47q-29 -3 -45 -29q-18 -20 -14 -53l38 -233q5 -30 29 -47t53 -13l281 45q25 3 47 29q16 25 12 55zM336 577l-61 59q-7 7 -4 16.5t12 12.5t17 -5l61 -59q5 -5 5 -11.5
t-5 -10.5q-13 -14 -25 -2zM666 579q-2 0 -3 2.5t-1.5 5t-1.5 4.5q0 4 4 12l59 62q5 4 11.5 4t11.5 -4q10 -11 2 -23l-59 -61q-1 -2 -3 -3t-5 -2t-5 -2q-2 0 -10 5zM506 603q-6 3 -6 12l-2 84q0 8 5 12.5t12 4.5q15 0 18 -17l2 -84q0 -7 -5 -11.5t-11 -4.5q-6 -3 -13 4z" />
    <glyph glyph-name="cloud-government" unicode="&#xe691;" 
d="M857 450v0q7 0 12 5t5 12v0v66q0 9 -9 14v0l-346 198q-4 2 -8 2t-8 -2v0l-346 -198q-9 -5 -9 -14v-66v0q0 -7 5 -12t12 -5v0h49v-297h-16q-12 0 -16 -11v0l-33 -99v0q-1 -3 -1 -5v0q0 -7 5 -11.5t12 -4.5v0h692v0q7 0 12 4.5t5 11.5v0q0 2 -1 5v0l-33 99v0q-4 11 -16 11
h-16v297h49zM511 712l284 -163h-568zM812 121l22 -66h-646l22 66h602zM247 450h66v-296h-66v296zM346 450h66v-296h-66v296v0zM445 450h132v-296h-132v296zM610 450h66v-296h-66v296zM709 450h66v-296h-66v296v0zM181 516h660v-33h-660v33z" />
    <glyph glyph-name="g" unicode="&#xe623;" 
d="M862 467h-362q-13 0 -13 -11v-157q0 -11 13 -11h233q24 0 38.5 -14.5t14.5 -35.5v-38q0 -16 -12.5 -27t-28.5 -11h-455h-1q-16 0 -27.5 11.5t-11.5 26.5v364q0 16 12 27t28 11h440v198h-488q-87 0 -148.5 -58.5t-61.5 -139.5v-436q0 -82 62 -140t148 -58h624
q52 0 88.5 34.5t36.5 83.5v251q6 54 -32.5 92t-96.5 38zM781 602h69l137 175q6 9 2 16t-14 7h-194v-198z" />
    <glyph glyph-name="Gkehushu" unicode="&#xe638;" 
d="M683 237h-48l-140 -208v-27h148v-82h40v83h39v30l-39 1v203zM643 199l-105 -164h105v164zM423 635zM164 634.5q0 -107.5 76 -183.5t183.5 -76t183.5 76t76 183.5t-76 183.5t-183.5 76t-183.5 -76t-76 -183.5zM6 -122h476q-79 86 -79 194q0 124 99 215q-40 9 -82 9
q-113 0 -208.5 -56t-150.5 -152.5t-55 -209.5zM1011 226q-4 2 -10 4t-24 7t-36 6.5t-42.5 -1t-45.5 -11.5t-43 -29.5t-37 -51.5q-2 -3 -3.5 -8.5t-5.5 -21.5t-5.5 -32t1 -38t9.5 -41.5t23.5 -40.5t41.5 -36q4 -2 10 -4.5t26.5 -7.5t41 -5.5t50 6t56.5 22.5v144h-110l1 -36
h68v-86q-3 -1 -9.5 -3.5t-24.5 -6.5t-34.5 -4t-37.5 8t-36 24q-3 3 -7 7.5t-12.5 20t-12.5 32.5t-1.5 44.5t14.5 56.5q2 4 6.5 11t20.5 22t36.5 23t56 5t75.5 -22v43z" />
    <glyph glyph-name="Gkehushu1" unicode="&#xe639;" 
d="M683 34v203h-48l-140 -208v-27h148v-82h40v83h39v30zM643 35h-105l105 164v-164zM423 635zM164 634.5q0 -107.5 76 -183.5t183.5 -76t183.5 76t76 183.5t-76 183.5t-183.5 76t-183.5 -76t-76 -183.5zM6 -122h476q-79 86 -79 194q0 124 99 215q-40 9 -82 9
q-113 0 -208.5 -56t-150.5 -152.5t-55 -209.5zM1011 226q-4 2 -10 4t-24 7t-36 6.5t-42.5 -1t-45.5 -11.5t-43 -29.5t-37 -51.5q-2 -3 -3.5 -8.5t-5.5 -21.5t-5.5 -32t1 -38t9.5 -41.5t23.5 -40.5t41.5 -36q4 -2 10 -4.5t26.5 -7.5t41 -5.5t50 6t56.5 22.5v144h-110l1 -36
h68v-86q-3 -1 -9.5 -3.5t-24.5 -6.5t-34.5 -4t-37.5 8t-36 24q-3 3 -7 7.5t-12.5 20t-12.5 32.5t-1.5 44.5t14.5 56.5q2 4 6.5 11t20.5 22t36.5 23t56 5t75.5 -22v43z" />
    <glyph glyph-name="kehushu" unicode="&#xe63a;" 
d="M423 635zM164 634.5q0 -107.5 76 -183.5t183.5 -76t183.5 76t76 183.5t-76 183.5t-183.5 76t-183.5 -76t-76 -183.5zM6 -122h476q-79 86 -79 194q0 124 99 215q-40 9 -82 9q-113 0 -208.5 -56t-150.5 -152.5t-55 -209.5zM1017 179q-4 2 -10.5 4.5t-25.5 5t-36 0t-37 -16
t-33 -38.5q-1 -4 -3 -10t-4.5 -23t0 -32.5t13.5 -34t31 -31.5q6 -3 16 -6.5t39 -2.5t55 16v86h-66v-22h41v-51q-5 -3 -15 -6t-32.5 -1t-37.5 18q-1 1 -3.5 4t-7.5 12t-7.5 19.5t-1 27t8.5 33.5q1 3 3.5 7t12.5 13t22 13.5t33 3t46 -13.5zM477 172v-24q3 3 8 7t19.5 10
t27.5 4q1 0 3.5 -0.5t8.5 -2.5t9 -7t6.5 -13t-0.5 -21q-2 -19 -25 -40l-66 -67v-21h115v21l-87 1l66 66q16 18 21 39q5 34 -13 52q-10 8 -23.5 11.5t-22.5 2.5l-8 -1q-22 -3 -39 -17zM688 187h22l-91 -221h-21zM733 179v-22q1 1 3 2.5t8.5 4.5t13.5 4.5t16.5 1t17.5 -4.5
q10 -4 12 -17q4 -19 -3 -26q-7 -14 -24 -15q-2 -1 -5.5 -1.5t-13.5 -1.5t-14 1v-19q42 -1 44 -4q19 -6 22 -22q6 -16 -6 -32q-1 -2 -4 -4.5t-10.5 -6t-15.5 -3.5q-20 -1 -36 7l-12 8v-25q15 -9 31 -9q27 -2 37 2q21 7 30 19q1 2 3.5 5t5.5 13t3 20v1v0q-1 19 -15 30
q-13 9 -21 10l-8 1l10 4q23 11 25 28q10 28 -9 47q-2 1 -5 4t-13 7t-21 4q-27 1 -46 -11z" />
    <glyph glyph-name="liwangyonghushu" unicode="&#xe63b;" 
d="M923 564q-33 82 -93 145.5t-139 98.5q-81 36 -170 36t-171 -36q-78 -35 -138.5 -98.5t-93.5 -145.5q-34 -85 -34 -178q0 -87 29.5 -167t85.5 -144q56 -63 129 -100.5t154 -45.5q14 -3 28 -3q9 0 19 2q88 1 167 38q77 35 136 98q61 65 93.5 148t32.5 174q0 93 -35 178z
M289 367q2 -101 24 -191q-68 -16 -122 -41q-72 105 -77 232h175zM530 575q76 1 147 14q21 -88 23 -188h-170v174zM319 367h177v-169q-80 -2 -154 -16q-21 87 -23 185zM319 401q2 102 24 190q73 -14 153 -16v-174h-177zM530 367h170q-2 -98 -23 -184q-71 13 -147 15v169z
M924 331q-13 -111 -78 -201q-60 30 -139 47q21 89 23 190h197q0 -18 -3 -36zM927 401h-197q-2 103 -24 193q80 18 140 48q77 -107 81 -241zM828 666q-56 -27 -130 -43q-12 44 -29 81q-32 67 -73 102q139 -27 232 -140zM641 691q16 -34 28 -73q-67 -12 -139 -13v205
q25 -7 49 -29q35 -31 62 -90zM440 781q27 25 56 30v-206q-76 1 -145 14q12 39 27 72q27 59 62 90zM415 799q-36 -35 -64 -95q-17 -36 -29 -78q-63 14 -112 36q83 103 205 137zM192 638q53 -26 122 -41q-23 -91 -25 -196h-175q4 131 78 237zM210 111q49 22 110 36
q10 -34 22 -64q29 -69 68 -110q-119 36 -200 138zM370 95q-11 27 -20 58q70 13 146 15v-210q-5 1 -9 1q-69 19 -117 136zM530 -42v210q72 -2 140 -14q-10 -34 -23 -64q-25 -58 -57 -92q-29 -32 -60 -40zM601 -34q43 40 74 112q14 33 24 70q73 -16 129 -43
q-92 -110 -227 -139zM1024 -86l-196 196l175 175l-28 28l-176 -175l-154 154l-28 -28l154 -154l-175 -175l28 -28l175 175l197 -197z" />
    <glyph glyph-name="wangluotousuliang" unicode="&#xe63c;" 
d="M901 573q-33 82 -93 145.5t-139 98.5q-81 36 -170 36t-171 -36q-78 -35 -138.5 -98.5t-93.5 -145.5q-34 -85 -34 -178q0 -87 29.5 -167t85.5 -144q56 -63 129 -100.5t154 -45.5q14 -3 28 -3q9 0 19 2q88 1 167 38q77 35 136 98q61 65 93.5 148t32.5 174q0 93 -35 178z
M267 376q2 -101 24 -191q-68 -16 -122 -41q-72 105 -77 232h175zM508 584q76 1 147 14q21 -88 23 -188h-170v174zM297 376h177v-169q-80 -2 -154 -16q-21 87 -23 185zM297 410q2 102 24 190q73 -14 153 -16v-174h-177zM508 376h170q-2 -98 -23 -184q-71 13 -147 15v169z
M902 340q-13 -111 -78 -201q-60 30 -139 47q21 89 23 190h197q0 -18 -3 -36zM905 410h-197q-2 103 -24 193q80 18 140 48q77 -107 81 -241zM806 675q-56 -27 -130 -43q-12 44 -29 81q-32 67 -73 102q139 -27 232 -140zM619 700q16 -34 28 -73q-67 -12 -139 -13v205
q25 -7 49 -29q35 -31 62 -90zM418 790q27 25 56 30v-206q-76 1 -145 14q12 39 27 72q27 59 62 90zM393 808q-36 -35 -64 -95q-17 -36 -29 -78q-63 14 -112 36q83 103 205 137zM170 647q53 -26 122 -41q-23 -91 -25 -196h-175q4 131 78 237zM188 120q49 22 110 36
q10 -34 22 -64q29 -69 68 -110q-119 36 -200 138zM348 104q-11 27 -20 58q70 13 146 15v-210q-5 1 -9 1q-69 19 -117 136zM508 -33v210q72 -2 140 -14q-10 -34 -23 -64q-25 -58 -57 -92q-29 -32 -60 -40zM579 -25q43 40 74 112q14 33 24 70q73 -16 129 -43
q-92 -110 -227 -139zM965 -92v0h-435q-9 0 -13 7q-3 4 -3 8.5t3 7.5l217 377q5 8 14 8t13 -8l217 -375q3 -4 3 -10v0q0 -6 -4.5 -10.5t-11.5 -4.5zM557 -61h381l-190 330zM765 16q0 -7 -5 -12.5t-12.5 -5.5t-12.5 5.5t-5 12.5t5 12.5t12.5 5.5t12.5 -5.5t5 -12.5zM745 49
q-1 21 -7.5 46t-6.5 29q0 11 4.5 17t12.5 6t12.5 -5.5t4.5 -14.5q0 -7 -6.5 -33t-7.5 -45h-6z" />
  </font>
</defs>
</svg>
